<svg width="990" height="1140" viewBox="0 0 990 1140" fill="none" xmlns="http://www.w3.org/2000/svg">
<path d="M494.047 0L516.505 65.9605H589.178L530.384 106.726L552.841 172.687L494.047 131.921L435.254 172.687L457.711 106.726L398.917 65.9605H471.59L494.047 0Z" fill="#FFEE00"/>
<path d="M495 572.754L990 985.797H0L495 572.754Z" fill="url(#paint0_linear_207_9)"/>
<path d="M495 282.705L837.946 741.642H152.054L495 282.705Z" fill="url(#paint1_linear_207_9)"/>
<path d="M495 132.174L740.85 462.609H249.15L495 132.174Z" fill="url(#paint2_linear_207_9)"/>
<path d="M433.449 985.797H549.67V1140H433.449V985.797Z" fill="#A57E2A"/>
<path fill-rule="evenodd" clip-rule="evenodd" d="M346.828 886.116L348.822 890.458C361.129 917.251 371.728 936.422 381.3 948.666C386.094 954.798 390.557 959.095 394.733 961.737C398.921 964.388 402.418 965.14 405.422 964.839C408.622 964.518 412.263 962.924 416.301 959.518C420.28 956.162 424.345 951.3 428.56 944.952C436.983 932.265 445.829 913.916 455.787 890.482L460.397 890.506C470.367 916.053 481.287 935.188 492.536 947.92C498.163 954.289 503.815 958.989 509.378 962.087C514.938 965.184 520.232 966.587 525.211 966.614C530.175 966.642 535.363 965.304 540.734 962.273C546.115 959.236 551.513 954.585 556.803 948.236C567.378 935.542 577.288 916.348 585.909 890.545L590.539 890.495C599.753 913.166 609.115 929.757 618.48 940.573C623.165 945.985 627.785 949.871 632.276 952.349C636.753 954.819 640.906 955.789 644.774 955.66C648.685 955.529 652.905 954.255 657.414 951.502C661.915 948.753 666.5 944.65 671.118 939.154C680.349 928.168 689.494 911.885 698.415 890.487L703.024 890.498C712.506 914.118 720.196 931.621 727.058 943.175C730.495 948.962 733.674 953.169 736.69 955.89C739.817 958.71 742.249 959.474 743.957 959.434C744.831 959.414 745.913 959.188 747.244 958.55C748.584 957.908 750.053 956.905 751.64 955.48C754.816 952.628 758.216 948.318 761.944 942.493C769.389 930.861 777.953 913.497 788.601 890.456L793.209 890.529C801.528 913.852 809.984 931.517 818.269 943.386C822.416 949.327 826.473 953.747 830.372 956.688C834.333 959.674 837.78 960.876 840.61 960.963C843.316 961.047 846.453 960.127 849.939 957.388C853.394 954.673 856.831 950.434 860.154 944.557C866.789 932.824 872.773 914.928 877.785 890.637L882.483 890.944C877.46 915.287 871.436 933.384 864.662 945.363C861.28 951.343 857.663 955.89 853.785 958.937C849.937 961.96 845.463 963.778 840.35 963.62C835.361 963.466 830.782 961.446 826.581 958.278C822.319 955.064 818.08 950.395 813.866 944.359C806.117 933.258 798.298 917.298 790.613 896.654C781.138 916.968 773.309 932.591 766.394 943.394C762.635 949.268 759.098 953.795 755.649 956.892C753.923 958.441 752.157 959.691 750.311 960.575C748.456 961.464 746.399 962.04 744.152 962.092C739.619 962.197 735.884 960.19 732.677 957.297C729.359 954.305 726.039 949.856 722.571 944.018C716.18 933.256 709.121 917.476 700.654 896.639C692.447 915.415 684.007 930.04 675.394 940.29C670.675 945.907 665.849 950.277 660.893 953.304C655.946 956.325 650.664 958.128 645.055 958.316C639.402 958.505 634.016 957.036 628.964 954.248C623.926 951.469 619.025 947.279 614.227 941.738C605.497 931.655 596.887 916.831 588.452 897.138C580.3 920.001 571.041 937.414 561.086 949.364C555.676 955.858 550.002 960.811 544.084 964.151C538.154 967.498 531.814 969.311 525.165 969.275C518.532 969.238 512.128 967.363 506.05 963.978C499.975 960.595 494.049 955.61 488.3 949.104C477.648 937.048 467.41 919.535 458.008 896.65C449 917.473 440.84 934.061 432.991 945.882C428.728 952.304 424.512 957.387 420.236 960.994C416.018 964.552 411.43 966.938 406.253 967.458C400.88 967.997 395.853 966.451 391.198 963.505C386.53 960.551 381.83 955.953 376.97 949.737C367.763 937.959 357.716 920.018 346.238 895.433C331.807 919.26 320.879 934.178 312.034 942.402C307.405 946.707 303.082 949.44 298.744 950.493C296.471 951.045 294.186 951.137 291.97 950.751C289.811 950.375 287.915 949.581 286.229 948.557C282.898 946.533 279.925 943.319 277.045 939.439C274.14 935.527 271.222 930.781 268.096 925.588C267.632 924.818 267.164 924.038 266.69 923.248C261.299 914.265 255.196 904.097 247.364 894.322C234.816 914.252 223.872 928.571 213.871 937.816C208.619 942.671 203.534 946.216 198.484 948.431C193.386 950.668 188.171 951.609 182.871 951.048C177.673 950.498 172.87 948.55 168.332 945.601C163.778 942.643 159.299 938.553 154.781 933.478C145.745 923.324 136.344 908.977 125.828 891.211L130.316 890.371C140.829 908.133 150.14 922.319 159.011 932.287C163.447 937.271 167.721 941.14 171.908 943.86C176.111 946.59 180.038 948.041 183.746 948.434C187.353 948.815 191.222 948.243 195.575 946.333C199.976 944.403 204.708 941.168 209.83 936.433C220.066 926.971 231.485 911.875 244.83 890.353L246.725 887.297L249.199 890.219C258.349 901.03 265.235 912.505 271.159 922.377C271.638 923.173 272.11 923.96 272.576 924.735C275.708 929.938 278.577 934.599 281.409 938.414C284.266 942.261 286.978 945.095 289.7 946.749C291.041 947.564 292.264 948.017 293.369 948.21C294.415 948.392 295.539 948.374 296.87 948.051C299.74 947.354 303.413 945.278 307.987 941.025C317.036 932.61 328.58 916.689 344.291 890.368L346.828 886.116Z" fill="black"/>
<path d="M904.614 891.75C904.138 899.092 893.172 904.827 880.119 904.56C867.066 904.292 856.87 898.123 857.346 890.781C857.821 883.44 868.788 877.705 881.841 877.972C894.894 878.24 905.09 884.408 904.614 891.75Z" fill="#FFFF00"/>
<path d="M818.645 890.79C818.645 898.137 808.056 904.093 794.995 904.093C781.933 904.093 771.345 898.137 771.345 890.79C771.345 883.444 781.933 877.488 794.995 877.488C808.056 877.488 818.645 883.444 818.645 890.79Z" fill="#FFFF00"/>
<path d="M719.316 890.79C719.316 898.137 708.727 904.093 695.666 904.093C682.604 904.093 672.016 898.137 672.016 890.79C672.016 883.444 682.604 877.488 695.666 877.488C708.727 877.488 719.316 883.444 719.316 890.79Z" fill="#FFFF00"/>
<path d="M151.722 890.79C151.722 898.137 141.134 904.093 128.072 904.093C115.011 904.093 104.423 898.137 104.423 890.79C104.423 883.444 115.011 877.488 128.072 877.488C141.134 877.488 151.722 883.444 151.722 890.79Z" fill="#FFFF00"/>
<path d="M601.067 890.79C601.067 898.137 590.479 904.093 577.417 904.093C564.356 904.093 553.767 898.137 553.767 890.79C553.767 883.444 564.356 877.488 577.417 877.488C590.479 877.488 601.067 883.444 601.067 890.79Z" fill="#FFFF00"/>
<path d="M269.971 890.79C269.971 898.137 259.382 904.093 246.321 904.093C233.26 904.093 222.671 898.137 222.671 890.79C222.671 883.444 233.26 877.488 246.321 877.488C259.382 877.488 269.971 883.444 269.971 890.79Z" fill="#FFFF00"/>
<path d="M369.3 890.79C369.3 898.137 358.711 904.093 345.65 904.093C332.588 904.093 322 898.137 322 890.79C322 883.444 332.588 877.488 345.65 877.488C358.711 877.488 369.3 883.444 369.3 890.79Z" fill="#FFFF00"/>
<path d="M487.548 890.79C487.548 898.137 475.901 904.093 461.534 904.093C447.166 904.093 435.519 898.137 435.519 890.79C435.519 883.444 447.166 877.488 461.534 877.488C475.901 877.488 487.548 883.444 487.548 890.79Z" fill="#FFFF00"/>
<path fill-rule="evenodd" clip-rule="evenodd" d="M423.257 502.9L424.14 506.547C429.59 529.053 434.284 545.157 438.523 555.441C440.646 560.593 442.623 564.202 444.472 566.422C446.327 568.648 447.875 569.28 449.206 569.027C450.623 568.757 452.235 567.418 454.024 564.557C455.786 561.738 457.586 557.654 459.453 552.322C463.183 541.665 467.1 526.252 471.51 506.567L473.552 506.587C477.967 528.047 482.803 544.12 487.785 554.815C490.277 560.165 492.78 564.113 495.243 566.716C497.706 569.317 500.05 570.495 502.255 570.518C504.454 570.541 506.751 569.418 509.129 566.872C511.513 564.32 513.903 560.414 516.246 555.08C520.929 544.417 525.318 528.295 529.136 506.62L531.186 506.578C535.266 525.622 539.413 539.559 543.56 548.644C545.635 553.189 547.681 556.454 549.67 558.535C551.652 560.61 553.491 561.425 555.204 561.317C556.937 561.207 558.805 560.137 560.802 557.824C562.795 555.515 564.826 552.068 566.871 547.451C570.959 538.223 575.009 524.545 578.96 506.572L581.001 506.581C585.2 526.421 588.606 541.124 591.644 550.829C593.166 555.69 594.575 559.225 595.91 561.51C597.295 563.879 598.372 564.52 599.128 564.487C599.515 564.47 599.994 564.28 600.584 563.744C601.178 563.205 601.828 562.362 602.531 561.165C603.937 558.77 605.443 555.149 607.094 550.257C610.391 540.485 614.184 525.9 618.899 506.545L620.94 506.606C624.624 526.198 628.369 541.037 632.038 551.007C633.874 555.997 635.671 559.71 637.398 562.18C639.152 564.689 640.678 565.698 641.932 565.772C643.13 565.842 644.52 565.069 646.063 562.768C647.593 560.488 649.116 556.926 650.587 551.99C653.526 542.134 656.175 527.102 658.395 506.698L660.476 506.955C658.251 527.404 655.583 542.605 652.583 552.668C651.086 557.691 649.484 561.51 647.766 564.069C646.062 566.609 644.081 568.136 641.817 568.003C639.607 567.873 637.579 566.177 635.719 563.516C633.831 560.816 631.954 556.894 630.088 551.824C626.657 542.499 623.193 529.093 619.79 511.752C615.594 528.816 612.127 541.938 609.065 551.014C607.4 555.948 605.834 559.75 604.306 562.352C603.542 563.653 602.76 564.703 601.942 565.446C601.121 566.192 600.21 566.676 599.215 566.72C597.207 566.808 595.553 565.122 594.133 562.692C592.664 560.178 591.193 556.442 589.658 551.537C586.827 542.497 583.701 529.242 579.951 511.739C576.317 527.511 572.579 539.796 568.765 548.406C566.675 553.124 564.538 556.795 562.343 559.338C560.152 561.876 557.813 563.39 555.329 563.548C552.826 563.706 550.44 562.472 548.203 560.131C545.972 557.796 543.801 554.277 541.677 549.622C537.81 541.152 533.997 528.701 530.262 512.159C526.652 531.364 522.551 545.99 518.142 556.028C515.747 561.483 513.234 565.644 510.613 568.449C507.987 571.261 505.179 572.784 502.235 572.753C499.297 572.722 496.461 571.147 493.77 568.304C491.079 565.462 488.455 561.275 485.909 555.81C481.192 545.683 476.657 530.972 472.494 511.748C468.505 529.239 464.891 543.174 461.415 553.104C459.527 558.498 457.66 562.768 455.766 565.797C453.898 568.786 451.866 570.791 449.574 571.227C447.194 571.68 444.968 570.381 442.906 567.906C440.839 565.425 438.758 561.563 436.606 556.341C432.528 546.448 428.079 531.377 422.996 510.726C416.605 530.741 411.765 543.272 407.848 550.18C405.798 553.796 403.884 556.092 401.963 556.977C400.956 557.44 399.944 557.517 398.963 557.193C398.007 556.877 397.167 556.21 396.42 555.35C394.945 553.65 393.629 550.95 392.353 547.691C391.067 544.405 389.774 540.418 388.39 536.056C388.185 535.409 387.977 534.754 387.767 534.091C385.38 526.545 382.677 518.004 379.209 509.793C373.651 526.534 368.805 538.562 364.376 546.328C362.05 550.406 359.798 553.384 357.562 555.245C355.304 557.123 352.995 557.914 350.647 557.443C348.345 556.981 346.218 555.344 344.209 552.868C342.192 550.382 340.208 546.947 338.208 542.683C334.206 534.154 330.043 522.103 325.386 507.18L327.373 506.474C332.029 521.394 336.152 533.31 340.081 541.683C342.045 545.87 343.938 549.12 345.792 551.405C347.654 553.698 349.393 554.917 351.035 555.247C352.632 555.567 354.346 555.087 356.273 553.483C358.222 551.861 360.318 549.143 362.586 545.166C367.12 537.218 372.176 524.537 378.087 506.459L378.926 503.892L380.021 506.346C384.073 515.427 387.123 525.067 389.747 533.359C389.958 534.028 390.167 534.689 390.374 535.339C391.761 539.71 393.032 543.626 394.286 546.83C395.551 550.062 396.752 552.442 397.958 553.832C398.551 554.516 399.093 554.897 399.582 555.058C400.046 555.211 400.543 555.196 401.133 554.925C402.404 554.339 404.031 552.596 406.056 549.024C410.063 541.955 415.176 528.581 422.133 506.471L423.257 502.9Z" fill="black"/>
<path d="M670.276 507.632C670.066 513.8 665.209 518.617 659.429 518.392C653.648 518.168 649.133 512.986 649.343 506.819C649.554 500.652 654.411 495.834 660.191 496.059C665.972 496.284 670.487 501.465 670.276 507.632Z" fill="#FFFF00"/>
<path d="M632.204 506.826C632.204 512.997 627.515 518 621.731 518C615.946 518 611.257 512.997 611.257 506.826C611.257 500.655 615.946 495.652 621.731 495.652C627.515 495.652 632.204 500.655 632.204 506.826Z" fill="#FFFF00"/>
<path d="M588.216 506.826C588.216 512.997 583.527 518 577.742 518C571.958 518 567.269 512.997 567.269 506.826C567.269 500.655 571.958 495.652 577.742 495.652C583.527 495.652 588.216 500.655 588.216 506.826Z" fill="#FFFF00"/>
<path d="M336.853 506.826C336.853 512.997 332.164 518 326.379 518C320.595 518 315.906 512.997 315.906 506.826C315.906 500.655 320.595 495.652 326.379 495.652C332.164 495.652 336.853 500.655 336.853 506.826Z" fill="#FFFF00"/>
<path d="M535.848 506.826C535.848 512.997 531.159 518 525.375 518C519.591 518 514.902 512.997 514.902 506.826C514.902 500.655 519.591 495.652 525.375 495.652C531.159 495.652 535.848 500.655 535.848 506.826Z" fill="#FFFF00"/>
<path d="M389.22 506.826C389.22 512.997 384.531 518 378.747 518C372.962 518 368.273 512.997 368.273 506.826C368.273 500.655 372.962 495.652 378.747 495.652C384.531 495.652 389.22 500.655 389.22 506.826Z" fill="#FFFF00"/>
<path d="M433.209 506.826C433.209 512.997 428.519 518 422.735 518C416.951 518 412.262 512.997 412.262 506.826C412.262 500.655 416.951 495.652 422.735 495.652C428.519 495.652 433.209 500.655 433.209 506.826Z" fill="#FFFF00"/>
<path d="M485.576 506.826C485.576 512.997 480.418 518 474.055 518C467.692 518 462.534 512.997 462.534 506.826C462.534 500.655 467.692 495.652 474.055 495.652C480.418 495.652 485.576 500.655 485.576 506.826Z" fill="#FFFF00"/>
<path fill-rule="evenodd" clip-rule="evenodd" d="M412.222 396.427L413.281 400.074C419.816 422.58 425.443 438.683 430.525 448.968C433.071 454.119 435.44 457.728 437.658 459.948C439.881 462.174 441.738 462.807 443.333 462.554C445.032 462.284 446.965 460.945 449.109 458.084C451.222 455.265 453.38 451.181 455.618 445.848C460.091 435.192 464.787 419.779 470.074 400.094L472.522 400.114C477.816 421.574 483.613 437.647 489.586 448.342C492.574 453.692 495.575 457.64 498.529 460.242C501.481 462.843 504.292 464.022 506.935 464.045C509.571 464.068 512.326 462.944 515.177 460.398C518.035 457.847 520.9 453.941 523.709 448.607C529.324 437.944 534.586 421.822 539.163 400.147L541.621 400.104C546.513 419.149 551.485 433.085 556.456 442.17C558.944 446.716 561.397 449.98 563.782 452.062C566.159 454.137 568.364 454.952 570.417 454.843C572.494 454.733 574.735 453.663 577.129 451.35C579.518 449.041 581.953 445.595 584.405 440.978C589.306 431.75 594.162 418.072 598.898 400.098L601.346 400.107C606.38 419.948 610.463 434.651 614.106 444.356C615.931 449.217 617.619 452.751 619.221 455.036C620.881 457.405 622.172 458.047 623.079 458.013C623.543 457.996 624.117 457.807 624.824 457.271C625.536 456.731 626.316 455.889 627.158 454.692C628.844 452.297 630.65 448.676 632.629 443.783C636.582 434.012 641.129 419.427 646.783 400.072L649.229 400.133C653.647 419.725 658.136 434.563 662.535 444.533C664.737 449.524 666.891 453.237 668.961 455.706C671.064 458.215 672.894 459.225 674.397 459.298C675.834 459.368 677.5 458.595 679.35 456.295C681.185 454.015 683.01 450.453 684.774 445.517C688.297 435.661 691.474 420.629 694.135 400.224L696.63 400.482C693.963 420.93 690.764 436.131 687.167 446.194C685.372 451.217 683.451 455.036 681.392 457.596C679.349 460.136 676.974 461.662 674.259 461.53C671.61 461.4 669.179 459.704 666.948 457.043C664.685 454.343 662.434 450.421 660.197 445.35C656.083 436.025 651.931 422.619 647.851 405.279C642.82 422.342 638.664 435.465 634.992 444.54C632.996 449.474 631.118 453.276 629.287 455.878C628.37 457.18 627.433 458.229 626.453 458.972C625.467 459.719 624.376 460.202 623.183 460.246C620.776 460.335 618.792 458.649 617.09 456.219C615.328 453.705 613.565 449.968 611.724 445.064C608.331 436.024 604.582 422.769 600.087 405.266C595.73 421.037 591.248 433.322 586.675 441.933C584.17 446.651 581.607 450.322 578.976 452.864C576.349 455.402 573.545 456.917 570.567 457.074C567.565 457.233 564.706 455.999 562.023 453.657C559.348 451.323 556.746 447.803 554.199 443.149C549.563 434.679 544.992 422.227 540.513 405.685C536.185 424.89 531.269 439.517 525.983 449.555C523.111 455.009 520.098 459.17 516.956 461.976C513.807 464.787 510.441 466.31 506.911 466.28C503.389 466.249 499.989 464.674 496.762 461.83C493.536 458.988 490.39 454.802 487.337 449.337C481.682 439.209 476.246 424.498 471.254 405.275C466.471 422.766 462.138 436.7 457.971 446.63C455.707 452.024 453.469 456.294 451.199 459.324C448.959 462.312 446.523 464.317 443.774 464.754C440.921 465.207 438.252 463.908 435.781 461.433C433.302 458.952 430.807 455.09 428.226 449.868C423.338 439.975 418.003 424.904 411.909 404.253C404.247 424.268 398.444 436.798 393.748 443.707C391.291 447.323 388.995 449.619 386.692 450.503C385.485 450.967 384.272 451.044 383.095 450.72C381.949 450.404 380.942 449.737 380.047 448.877C378.279 447.176 376.7 444.477 375.171 441.218C373.629 437.931 372.079 433.945 370.419 429.583C370.173 428.936 369.925 428.281 369.673 427.617C366.81 420.072 363.57 411.531 359.412 403.319C352.749 420.061 346.939 432.089 341.628 439.855C338.84 443.933 336.14 446.91 333.459 448.771C330.752 450.65 327.983 451.441 325.169 450.969C322.409 450.507 319.859 448.871 317.449 446.394C315.031 443.909 312.653 440.474 310.255 436.21C305.457 427.681 300.465 415.63 294.882 400.706L297.265 400C302.847 414.921 307.79 426.837 312.5 435.21C314.856 439.397 317.125 442.647 319.348 444.931C321.58 447.225 323.665 448.443 325.633 448.773C327.549 449.094 329.603 448.613 331.914 447.009C334.251 445.387 336.764 442.67 339.483 438.693C344.918 430.745 350.981 418.064 358.066 399.985L359.073 397.418L360.386 399.873C365.244 408.954 368.901 418.593 372.046 426.885C372.3 427.555 372.55 428.215 372.798 428.866C374.461 433.237 375.984 437.152 377.488 440.357C379.005 443.588 380.445 445.969 381.89 447.358C382.602 448.043 383.251 448.423 383.838 448.585C384.394 448.738 384.99 448.723 385.697 448.451C387.221 447.866 389.171 446.123 391.6 442.55C396.404 435.482 402.533 422.108 410.875 399.998L412.222 396.427Z" fill="black"/>
<path d="M708.38 401.159C708.128 407.326 702.305 412.144 695.374 411.919C688.444 411.694 683.031 406.513 683.283 400.345C683.536 394.178 689.358 389.361 696.289 389.586C703.219 389.81 708.633 394.992 708.38 401.159Z" fill="#FFFF00"/>
<path d="M662.734 400.353C662.734 406.524 657.112 411.527 650.177 411.527C643.243 411.527 637.621 406.524 637.621 400.353C637.621 394.182 643.243 389.179 650.177 389.179C657.112 389.179 662.734 394.182 662.734 400.353Z" fill="#FFFF00"/>
<path d="M609.996 400.353C609.996 406.524 604.374 411.527 597.439 411.527C590.504 411.527 584.882 406.524 584.882 400.353C584.882 394.182 590.504 389.179 597.439 389.179C604.374 389.179 609.996 394.182 609.996 400.353Z" fill="#FFFF00"/>
<path d="M308.63 400.353C308.63 406.524 303.008 411.527 296.073 411.527C289.138 411.527 283.517 406.524 283.517 400.353C283.517 394.182 289.138 389.179 296.073 389.179C303.008 389.179 308.63 394.182 308.63 400.353Z" fill="#FFFF00"/>
<path d="M547.211 400.353C547.211 406.524 541.589 411.527 534.654 411.527C527.719 411.527 522.097 406.524 522.097 400.353C522.097 394.182 527.719 389.179 534.654 389.179C541.589 389.179 547.211 394.182 547.211 400.353Z" fill="#FFFF00"/>
<path d="M371.415 400.353C371.415 406.524 365.793 411.527 358.858 411.527C351.923 411.527 346.301 406.524 346.301 400.353C346.301 394.182 351.923 389.179 358.858 389.179C365.793 389.179 371.415 394.182 371.415 400.353Z" fill="#FFFF00"/>
<path d="M424.154 400.353C424.154 406.524 418.532 411.527 411.597 411.527C404.662 411.527 399.04 406.524 399.04 400.353C399.04 394.182 404.662 389.179 411.597 389.179C418.532 389.179 424.154 394.182 424.154 400.353Z" fill="#FFFF00"/>
<path d="M486.938 400.353C486.938 406.524 480.754 411.527 473.126 411.527C465.497 411.527 459.313 406.524 459.313 400.353C459.313 394.182 465.497 389.179 473.126 389.179C480.754 389.179 486.938 394.182 486.938 400.353Z" fill="#FFFF00"/>
<path fill-rule="evenodd" clip-rule="evenodd" d="M442.086 304.639L442.78 308.286C447.058 330.793 450.742 346.896 454.069 357.181C455.736 362.332 457.287 365.941 458.739 368.161C460.195 370.387 461.41 371.019 462.455 370.766C463.567 370.496 464.833 369.157 466.237 366.297C467.62 363.477 469.033 359.393 470.498 354.061C473.426 343.404 476.501 327.991 479.962 308.306L481.565 308.326C485.031 329.786 488.827 345.859 492.737 356.555C494.693 361.904 496.658 365.852 498.592 368.455C500.525 371.056 502.365 372.235 504.096 372.258C505.821 372.281 507.625 371.157 509.492 368.611C511.362 366.06 513.239 362.153 515.078 356.819C518.754 346.156 522.199 330.034 525.195 308.36L526.805 308.317C530.008 327.361 533.262 341.298 536.518 350.383C538.146 354.929 539.752 358.193 541.314 360.275C542.87 362.349 544.313 363.165 545.658 363.056C547.018 362.946 548.485 361.876 550.052 359.563C551.617 357.254 553.21 353.807 554.816 349.191C558.024 339.962 561.204 326.285 564.305 308.311L565.907 308.32C569.203 328.161 571.876 342.863 574.261 352.568C575.456 357.429 576.562 360.964 577.61 363.249C578.697 365.618 579.542 366.259 580.136 366.226C580.44 366.209 580.816 366.019 581.279 365.483C581.745 364.944 582.255 364.102 582.807 362.904C583.911 360.509 585.093 356.888 586.389 351.996C588.977 342.224 591.954 327.639 595.655 308.284L597.257 308.346C600.149 327.937 603.088 342.776 605.968 352.746C607.41 357.737 608.82 361.449 610.176 363.919C611.552 366.428 612.75 367.437 613.734 367.511C614.675 367.581 615.766 366.808 616.977 364.508C618.178 362.227 619.373 358.666 620.528 353.729C622.835 343.873 624.915 328.841 626.657 308.437L628.29 308.695C626.544 329.143 624.45 344.344 622.095 354.407C620.92 359.43 619.662 363.249 618.314 365.808C616.977 368.348 615.421 369.875 613.644 369.742C611.91 369.613 610.318 367.917 608.858 365.255C607.376 362.555 605.902 358.633 604.438 353.563C601.744 344.238 599.026 330.832 596.354 313.491C593.061 330.555 590.339 343.678 587.936 352.753C586.629 357.687 585.399 361.489 584.2 364.091C583.6 365.392 582.986 366.442 582.345 367.185C581.7 367.932 580.985 368.415 580.204 368.459C578.628 368.547 577.33 366.861 576.215 364.431C575.061 361.917 573.907 358.181 572.702 353.276C570.48 344.237 568.026 330.982 565.083 313.479C562.23 329.25 559.296 341.535 556.302 350.145C554.662 354.863 552.984 358.534 551.261 361.077C549.542 363.615 547.705 365.129 545.756 365.287C543.791 365.446 541.919 364.212 540.162 361.87C538.411 359.535 536.707 356.016 535.039 351.361C532.005 342.891 529.012 330.44 526.079 313.898C523.246 333.103 520.027 347.729 516.566 357.768C514.686 363.222 512.713 367.383 510.656 370.189C508.595 373 506.391 374.523 504.08 374.492C501.774 374.462 499.548 372.886 497.435 370.043C495.323 367.201 493.263 363.014 491.265 357.549C487.562 347.422 484.003 332.711 480.735 313.487C477.603 330.979 474.767 344.913 472.038 354.843C470.556 360.237 469.091 364.507 467.604 367.537C466.138 370.525 464.543 372.53 462.744 372.966C460.876 373.419 459.128 372.121 457.51 369.646C455.888 367.164 454.254 363.302 452.564 358.08C449.364 348.187 445.871 333.116 441.881 312.465C436.865 332.48 433.066 345.011 429.991 351.92C428.382 355.535 426.879 357.831 425.371 358.716C424.581 359.179 423.787 359.257 423.017 358.932C422.266 358.617 421.607 357.95 421.021 357.089C419.863 355.389 418.83 352.689 417.828 349.43C416.819 346.144 415.804 342.158 414.717 337.795C414.556 337.148 414.394 336.493 414.229 335.83C412.355 328.284 410.233 319.743 407.511 311.532C403.149 328.273 399.345 340.301 395.868 348.067C394.042 352.145 392.275 355.123 390.519 356.984C388.747 358.863 386.934 359.653 385.092 359.182C383.285 358.72 381.615 357.083 380.038 354.607C378.455 352.121 376.898 348.686 375.327 344.423C372.186 335.893 368.918 323.843 365.263 308.919L366.823 308.213C370.477 323.133 373.714 335.049 376.797 343.422C378.34 347.61 379.825 350.859 381.281 353.144C382.742 355.437 384.107 356.656 385.396 356.986C386.65 357.306 387.995 356.826 389.508 355.222C391.038 353.6 392.683 350.883 394.463 346.906C398.021 338.957 401.991 326.276 406.63 308.198L407.289 305.631L408.149 308.086C411.329 317.167 413.723 326.806 415.783 335.098C415.949 335.767 416.113 336.428 416.275 337.079C417.364 341.449 418.361 345.365 419.346 348.569C420.338 351.801 421.281 354.181 422.228 355.571C422.694 356.255 423.119 356.636 423.503 356.798C423.867 356.951 424.257 356.935 424.72 356.664C425.718 356.079 426.995 354.335 428.584 350.763C431.73 343.694 435.743 330.32 441.204 308.21L442.086 304.639Z" fill="black"/>
<path d="M635.983 309.372C635.818 315.539 632.006 320.356 627.468 320.132C622.931 319.907 619.387 314.725 619.552 308.558C619.717 302.391 623.53 297.573 628.067 297.798C632.604 298.023 636.149 303.204 635.983 309.372Z" fill="#FFFF00"/>
<path d="M606.099 308.565C606.099 314.737 602.418 319.74 597.878 319.74C593.337 319.74 589.657 314.737 589.657 308.565C589.657 302.394 593.337 297.391 597.878 297.391C602.418 297.391 606.099 302.394 606.099 308.565Z" fill="#FFFF00"/>
<path d="M571.57 308.565C571.57 314.737 567.889 319.74 563.349 319.74C558.809 319.74 555.128 314.737 555.128 308.565C555.128 302.394 558.809 297.391 563.349 297.391C567.889 297.391 571.57 302.394 571.57 308.565Z" fill="#FFFF00"/>
<path d="M374.264 308.565C374.264 314.737 370.583 319.74 366.043 319.74C361.502 319.74 357.822 314.737 357.822 308.565C357.822 302.394 361.502 297.391 366.043 297.391C370.583 297.391 374.264 302.394 374.264 308.565Z" fill="#FFFF00"/>
<path d="M530.465 308.565C530.465 314.737 526.784 319.74 522.244 319.74C517.703 319.74 514.022 314.737 514.022 308.565C514.022 302.394 517.703 297.391 522.244 297.391C526.784 297.391 530.465 302.394 530.465 308.565Z" fill="#FFFF00"/>
<path d="M415.369 308.565C415.369 314.737 411.689 319.74 407.148 319.74C402.608 319.74 398.927 314.737 398.927 308.565C398.927 302.394 402.608 297.391 407.148 297.391C411.689 297.391 415.369 302.394 415.369 308.565Z" fill="#FFFF00"/>
<path d="M449.898 308.565C449.898 314.737 446.217 319.74 441.677 319.74C437.136 319.74 433.456 314.737 433.456 308.565C433.456 302.394 437.136 297.391 441.677 297.391C446.217 297.391 449.898 302.394 449.898 308.565Z" fill="#FFFF00"/>
<path d="M491.003 308.565C491.003 314.737 486.955 319.74 481.96 319.74C476.966 319.74 472.917 314.737 472.917 308.565C472.917 302.394 476.966 297.391 481.96 297.391C486.955 297.391 491.003 302.394 491.003 308.565Z" fill="#FFFF00"/>
<path fill-rule="evenodd" clip-rule="evenodd" d="M463.634 227.538L464.019 231.185C466.392 253.691 468.436 269.794 470.282 280.079C471.207 285.23 472.068 288.84 472.873 291.059C473.681 293.286 474.355 293.918 474.934 293.665C475.551 293.395 476.254 292.056 477.033 289.195C477.8 286.376 478.584 282.292 479.397 276.959C481.021 266.303 482.727 250.89 484.648 231.205L485.537 231.225C487.46 252.685 489.565 268.758 491.735 279.453C492.82 284.803 493.91 288.751 494.983 291.353C496.055 293.954 497.076 295.133 498.037 295.156C498.994 295.179 499.994 294.056 501.03 291.51C502.068 288.958 503.109 285.052 504.129 279.718C506.169 269.055 508.08 252.933 509.743 231.258L510.636 231.216C512.413 250.26 514.218 264.196 516.024 273.281C516.928 277.827 517.819 281.091 518.685 283.173C519.548 285.248 520.349 286.063 521.095 285.954C521.849 285.845 522.663 284.774 523.533 282.461C524.401 280.152 525.285 276.706 526.176 272.089C527.956 262.861 529.72 249.183 531.44 231.209L532.329 231.218C534.158 251.059 535.641 265.762 536.964 275.467C537.627 280.328 538.24 283.862 538.822 286.147C539.425 288.517 539.894 289.158 540.223 289.124C540.392 289.107 540.6 288.918 540.857 288.382C541.116 287.842 541.399 287 541.705 285.803C542.318 283.408 542.973 279.787 543.692 274.894C545.128 265.123 546.78 250.538 548.833 231.183L549.722 231.244C551.326 250.836 552.957 265.674 554.555 275.645C555.355 280.635 556.137 284.348 556.889 286.818C557.653 289.326 558.318 290.336 558.863 290.409C559.385 290.479 559.99 289.707 560.663 287.406C561.329 285.126 561.992 281.564 562.633 276.628C563.912 266.772 565.066 251.74 566.033 231.336L566.939 231.593C565.97 252.041 564.809 267.243 563.502 277.305C562.85 282.328 562.152 286.147 561.404 288.707C560.662 291.247 559.799 292.773 558.813 292.641C557.851 292.511 556.968 290.815 556.158 288.154C555.336 285.454 554.518 281.532 553.706 276.461C552.211 267.136 550.703 253.731 549.221 236.39C547.394 253.453 545.884 266.576 544.551 275.651C543.825 280.585 543.143 284.388 542.478 286.989C542.145 288.291 541.805 289.34 541.449 290.083C541.091 290.83 540.694 291.314 540.261 291.357C539.387 291.446 538.666 289.76 538.048 287.33C537.408 284.816 536.768 281.079 536.099 276.175C534.866 267.135 533.505 253.88 531.872 236.377C530.289 252.148 528.662 264.433 527 273.044C526.09 277.762 525.16 281.433 524.204 283.975C523.25 286.513 522.231 288.028 521.149 288.185C520.059 288.344 519.02 287.11 518.046 284.769C517.074 282.434 516.129 278.915 515.204 274.26C513.52 265.79 511.86 253.338 510.233 236.796C508.661 256.001 506.875 270.628 504.955 280.666C503.912 286.12 502.818 290.282 501.676 293.087C500.533 295.898 499.31 297.422 498.028 297.391C496.748 297.36 495.513 295.785 494.341 292.941C493.17 290.099 492.027 285.913 490.918 280.448C488.864 270.32 486.889 255.609 485.076 236.386C483.339 253.877 481.765 267.811 480.251 277.741C479.429 283.135 478.616 287.405 477.791 290.435C476.978 293.423 476.093 295.428 475.095 295.865C474.058 296.318 473.089 295.019 472.191 292.544C471.291 290.063 470.385 286.201 469.447 280.979C467.672 271.086 465.734 256.015 463.52 235.364C460.737 255.379 458.63 267.909 456.924 274.818C456.031 278.434 455.197 280.73 454.361 281.614C453.922 282.078 453.482 282.155 453.054 281.831C452.638 281.515 452.272 280.848 451.947 279.988C451.305 278.288 450.731 275.588 450.176 272.329C449.616 269.042 449.053 265.056 448.45 260.694C448.361 260.047 448.27 259.392 448.179 258.729C447.139 251.183 445.962 242.642 444.452 234.43C442.032 251.172 439.921 263.2 437.992 270.966C436.98 275.044 435.999 278.021 435.025 279.882C434.042 281.761 433.036 282.552 432.014 282.081C431.011 281.618 430.085 279.982 429.21 277.505C428.332 275.02 427.468 271.585 426.597 267.321C424.854 258.792 423.041 246.741 421.013 231.818L421.878 231.112C423.906 246.032 425.701 257.948 427.412 266.321C428.268 270.508 429.092 273.758 429.9 276.042C430.71 278.336 431.467 279.555 432.183 279.884C432.878 280.205 433.624 279.724 434.464 278.12C435.313 276.498 436.225 273.781 437.213 269.804C439.187 261.856 441.389 249.175 443.963 231.097L444.329 228.53L444.806 230.984C446.57 240.065 447.898 249.704 449.041 257.996C449.133 258.666 449.224 259.326 449.314 259.977C449.918 264.348 450.471 268.263 451.018 271.468C451.569 274.699 452.092 277.08 452.617 278.47C452.875 279.154 453.111 279.534 453.324 279.696C453.526 279.849 453.743 279.834 453.999 279.562C454.553 278.977 455.261 277.234 456.143 273.661C457.889 266.593 460.115 253.219 463.145 231.109L463.634 227.538Z" fill="black"/>
<path d="M571.207 232.27C571.115 238.437 569 243.255 566.483 243.03C563.966 242.805 561.999 237.624 562.091 231.457C562.183 225.289 564.298 220.472 566.815 220.697C569.332 220.921 571.299 226.103 571.207 232.27Z" fill="#FFFF00"/>
<path d="M554.627 231.464C554.627 237.635 552.585 242.638 550.066 242.638C547.547 242.638 545.505 237.635 545.505 231.464C545.505 225.293 547.547 220.29 550.066 220.29C552.585 220.29 554.627 225.293 554.627 231.464Z" fill="#FFFF00"/>
<path d="M535.471 231.464C535.471 237.635 533.429 242.638 530.91 242.638C528.391 242.638 526.349 237.635 526.349 231.464C526.349 225.293 528.391 220.29 530.91 220.29C533.429 220.29 535.471 225.293 535.471 231.464Z" fill="#FFFF00"/>
<path d="M426.007 231.464C426.007 237.635 423.965 242.638 421.446 242.638C418.927 242.638 416.884 237.635 416.884 231.464C416.884 225.293 418.927 220.29 421.446 220.29C423.965 220.29 426.007 225.293 426.007 231.464Z" fill="#FFFF00"/>
<path d="M512.666 231.464C512.666 237.635 510.624 242.638 508.105 242.638C505.586 242.638 503.544 237.635 503.544 231.464C503.544 225.293 505.586 220.29 508.105 220.29C510.624 220.29 512.666 225.293 512.666 231.464Z" fill="#FFFF00"/>
<path d="M448.812 231.464C448.812 237.635 446.77 242.638 444.251 242.638C441.732 242.638 439.69 237.635 439.69 231.464C439.69 225.293 441.732 220.29 444.251 220.29C446.77 220.29 448.812 225.293 448.812 231.464Z" fill="#FFFF00"/>
<path d="M467.968 231.464C467.968 237.635 465.926 242.638 463.407 242.638C460.888 242.638 458.846 237.635 458.846 231.464C458.846 225.293 460.888 220.29 463.407 220.29C465.926 220.29 467.968 225.293 467.968 231.464Z" fill="#FFFF00"/>
<path d="M490.773 231.464C490.773 237.635 488.527 242.638 485.756 242.638C482.985 242.638 480.739 237.635 480.739 231.464C480.739 225.293 482.985 220.29 485.756 220.29C488.527 220.29 490.773 225.293 490.773 231.464Z" fill="#FFFF00"/>
<path fill-rule="evenodd" clip-rule="evenodd" d="M398.476 580.002L399.672 583.649C407.057 606.155 413.416 622.258 419.159 632.543C422.036 637.694 424.713 641.303 427.219 643.523C429.731 645.749 431.83 646.382 433.632 646.128C435.552 645.859 437.737 644.52 440.16 641.659C442.547 638.84 444.986 634.756 447.515 629.423C452.569 618.767 457.876 603.354 463.851 583.669L466.617 583.689C472.599 605.148 479.151 621.221 485.901 631.917C489.277 637.267 492.668 641.215 496.006 643.817C499.342 646.418 502.518 647.597 505.506 647.62C508.484 647.643 511.597 646.519 514.819 643.973C518.048 641.422 521.287 637.515 524.461 632.182C530.806 621.519 536.752 605.396 541.924 583.722L544.702 583.679C550.231 602.724 555.848 616.66 561.467 625.745C564.278 630.291 567.05 633.555 569.745 635.637C572.431 637.712 574.922 638.527 577.243 638.418C579.59 638.308 582.122 637.238 584.828 634.925C587.528 632.616 590.279 629.169 593.049 624.553C598.588 615.325 604.075 601.647 609.428 583.673L612.194 583.682C617.882 603.523 622.497 618.226 626.614 627.93C628.676 632.792 630.584 636.326 632.393 638.611C634.269 640.98 635.729 641.622 636.753 641.588C637.277 641.571 637.927 641.381 638.725 640.846C639.53 640.306 640.411 639.464 641.363 638.267C643.268 635.872 645.309 632.251 647.545 627.358C652.013 617.587 657.151 603.002 663.54 583.646L666.304 583.708C671.296 603.299 676.369 618.138 681.34 628.108C683.829 633.099 686.263 636.811 688.602 639.281C690.979 641.79 693.047 642.8 694.745 642.873C696.369 642.943 698.251 642.17 700.342 639.87C702.415 637.589 704.478 634.028 706.472 629.092C710.453 619.236 714.043 604.204 717.05 583.799L719.869 584.057C716.855 604.505 713.241 619.706 709.176 629.769C707.147 634.792 704.977 638.611 702.65 641.171C700.341 643.711 697.657 645.237 694.589 645.104C691.596 644.975 688.848 643.279 686.328 640.617C683.77 637.917 681.227 633.995 678.699 628.925C674.049 619.6 669.358 606.194 664.747 588.853C659.062 605.917 654.365 619.04 650.216 628.115C647.96 633.049 645.838 636.851 643.768 639.453C642.733 640.754 641.673 641.804 640.566 642.547C639.452 643.294 638.218 643.777 636.87 643.821C634.151 643.91 631.909 642.224 629.985 639.794C627.994 637.28 626.002 633.543 623.922 628.639C620.087 619.599 615.851 606.344 610.771 588.841C605.847 604.612 600.783 616.897 595.615 625.508C592.784 630.226 589.888 633.897 586.915 636.439C583.947 638.977 580.777 640.491 577.412 640.649C574.02 640.808 570.789 639.574 567.757 637.232C564.735 634.897 561.794 631.378 558.915 626.724C553.677 618.254 548.511 605.802 543.45 589.26C538.559 608.465 533.004 623.091 527.03 633.13C523.785 638.584 520.38 642.745 516.829 645.551C513.271 648.362 509.467 649.885 505.478 649.855C501.498 649.824 497.656 648.248 494.009 645.405C490.364 642.563 486.808 638.377 483.359 632.911C476.968 622.784 470.825 608.073 465.184 588.849C459.779 606.341 454.883 620.275 450.174 630.205C447.616 635.599 445.086 639.869 442.521 642.899C439.99 645.887 437.237 647.892 434.131 648.328C430.907 648.782 427.891 647.483 425.098 645.008C422.297 642.527 419.477 638.665 416.561 633.443C411.037 623.55 405.009 608.479 398.122 587.828C389.463 607.843 382.906 620.373 377.599 627.282C374.822 630.898 372.228 633.194 369.625 634.078C368.261 634.542 366.891 634.619 365.561 634.295C364.266 633.979 363.128 633.312 362.117 632.451C360.118 630.751 358.334 628.052 356.606 624.793C354.863 621.506 353.112 617.52 351.236 613.157C350.958 612.511 350.677 611.855 350.393 611.192C347.158 603.647 343.497 595.105 338.798 586.894C331.268 603.635 324.702 615.664 318.701 623.43C315.55 627.507 312.5 630.485 309.469 632.346C306.411 634.225 303.282 635.016 300.102 634.544C296.982 634.082 294.101 632.445 291.378 629.969C288.646 627.484 285.958 624.049 283.248 619.785C277.826 611.256 272.185 599.205 265.876 584.281L268.569 583.575C274.877 598.496 280.463 610.412 285.785 618.784C288.447 622.972 291.012 626.221 293.524 628.506C296.046 630.8 298.401 632.018 300.626 632.348C302.791 632.669 305.112 632.188 307.724 630.584C310.364 628.962 313.204 626.245 316.277 622.268C322.419 614.32 329.27 601.639 337.277 583.56L338.414 580.993L339.898 583.448C345.388 592.529 349.52 602.168 353.075 610.46C353.362 611.13 353.645 611.79 353.925 612.441C355.804 616.812 357.525 620.727 359.225 623.931C360.938 627.163 362.566 629.544 364.199 630.933C365.004 631.618 365.737 631.998 366.4 632.16C367.028 632.313 367.702 632.298 368.501 632.026C370.223 631.441 372.427 629.698 375.171 626.125C380.601 619.057 387.527 605.682 396.953 583.573L398.476 580.002Z" fill="black"/>
<path d="M733.147 584.734C732.862 590.901 726.282 595.718 718.45 595.494C710.619 595.269 704.501 590.088 704.786 583.92C705.072 577.753 711.652 572.936 719.484 573.16C727.315 573.385 733.433 578.567 733.147 584.734Z" fill="#FFFF00"/>
<path d="M681.566 583.928C681.566 590.099 675.213 595.102 667.376 595.102C659.539 595.102 653.186 590.099 653.186 583.928C653.186 577.756 659.539 572.754 667.376 572.754C675.213 572.754 681.566 577.756 681.566 583.928Z" fill="#FFFF00"/>
<path d="M621.968 583.928C621.968 590.099 615.615 595.102 607.779 595.102C599.942 595.102 593.589 590.099 593.589 583.928C593.589 577.756 599.942 572.754 607.779 572.754C615.615 572.754 621.968 577.756 621.968 583.928Z" fill="#FFFF00"/>
<path d="M281.412 583.928C281.412 590.099 275.059 595.102 267.222 595.102C259.386 595.102 253.032 590.099 253.032 583.928C253.032 577.756 259.386 572.754 267.222 572.754C275.059 572.754 281.412 577.756 281.412 583.928Z" fill="#FFFF00"/>
<path d="M551.019 583.928C551.019 590.099 544.666 595.102 536.829 595.102C528.992 595.102 522.639 590.099 522.639 583.928C522.639 577.756 528.992 572.754 536.829 572.754C544.666 572.754 551.019 577.756 551.019 583.928Z" fill="#FFFF00"/>
<path d="M352.361 583.928C352.361 590.099 346.008 595.102 338.172 595.102C330.335 595.102 323.982 590.099 323.982 583.928C323.982 577.756 330.335 572.754 338.172 572.754C346.008 572.754 352.361 577.756 352.361 583.928Z" fill="#FFFF00"/>
<path d="M411.959 583.928C411.959 590.099 405.606 595.102 397.769 595.102C389.932 595.102 383.579 590.099 383.579 583.928C383.579 577.756 389.932 572.754 397.769 572.754C405.606 572.754 411.959 577.756 411.959 583.928Z" fill="#FFFF00"/>
<path d="M482.908 583.928C482.908 590.099 475.92 595.102 467.299 595.102C458.679 595.102 451.69 590.099 451.69 583.928C451.69 577.756 458.679 572.754 467.299 572.754C475.92 572.754 482.908 577.756 482.908 583.928Z" fill="#FFFF00"/>
<path fill-rule="evenodd" clip-rule="evenodd" d="M371.442 671.789L372.98 675.436C382.474 697.942 390.651 714.045 398.035 724.33C401.733 729.482 405.176 733.091 408.397 735.311C411.628 737.537 414.325 738.169 416.643 737.916C419.111 737.646 421.921 736.307 425.035 733.446C428.105 730.627 431.241 726.543 434.492 721.211C440.99 710.554 447.814 695.141 455.496 675.456L459.052 675.476C466.744 696.936 475.167 713.009 483.845 723.704C488.186 729.054 492.546 733.002 496.838 735.604C501.127 738.206 505.211 739.384 509.052 739.407C512.881 739.43 516.883 738.307 521.026 735.761C525.178 733.209 529.341 729.303 533.422 723.969C541.58 713.306 549.226 697.184 555.876 675.509L559.447 675.467C566.555 694.511 573.778 708.447 581.002 717.532C584.616 722.078 588.18 725.343 591.645 727.424C595.098 729.499 598.302 730.314 601.286 730.206C604.303 730.096 607.558 729.026 611.037 726.712C614.509 724.404 618.046 720.957 621.608 716.34C628.729 707.112 635.784 693.434 642.666 675.461L646.222 675.47C653.536 695.31 659.469 710.013 664.762 719.718C667.413 724.579 669.866 728.113 672.193 730.399C674.605 732.768 676.481 733.409 677.799 733.376C678.472 733.359 679.307 733.169 680.334 732.633C681.368 732.094 682.501 731.251 683.726 730.054C686.175 727.659 688.798 724.038 691.674 719.145C697.418 709.374 704.024 694.789 712.238 675.434L715.793 675.495C722.211 695.087 728.734 709.926 735.125 719.896C738.324 724.886 741.454 728.599 744.462 731.069C747.517 733.577 750.176 734.587 752.359 734.66C754.447 734.731 756.867 733.958 759.556 731.657C762.221 729.377 764.873 725.815 767.436 720.879C772.555 711.023 777.171 695.991 781.037 675.587L784.661 675.844C780.787 696.292 776.139 711.494 770.914 721.556C768.305 726.579 765.515 730.399 762.523 732.958C759.554 735.498 756.103 737.025 752.159 736.892C748.31 736.762 744.778 735.066 741.537 732.405C738.249 729.705 734.979 725.783 731.728 720.712C725.751 711.388 719.718 697.982 713.79 680.641C706.481 697.704 700.442 710.827 695.107 719.903C692.207 724.837 689.479 728.639 686.818 731.24C685.487 732.542 684.124 733.592 682.7 734.334C681.269 735.081 679.682 735.565 677.949 735.609C674.452 735.697 671.571 734.011 669.097 731.581C666.537 729.067 663.976 725.331 661.301 720.426C656.371 711.386 650.925 698.131 644.393 680.628C638.063 696.399 631.552 708.684 624.907 717.295C621.266 722.013 617.544 725.684 613.721 728.226C609.904 730.764 605.83 732.279 601.502 732.436C597.142 732.595 592.987 731.361 589.09 729.02C585.203 726.685 581.422 723.166 577.721 718.511C570.987 710.041 564.344 697.59 557.837 681.048C551.549 700.253 544.406 714.879 536.726 724.917C532.553 730.372 528.176 734.533 523.611 737.338C519.036 740.149 514.145 741.673 509.016 741.642C503.899 741.611 498.959 740.036 494.27 737.193C489.584 734.351 485.012 730.164 480.578 724.699C472.36 714.571 464.462 699.86 457.21 680.637C450.26 698.128 443.966 712.063 437.911 721.992C434.622 727.387 431.37 731.656 428.071 734.686C424.817 737.674 421.278 739.679 417.284 740.116C413.139 740.569 409.261 739.27 405.67 736.795C402.069 734.314 398.444 730.452 394.694 725.23C387.592 715.337 379.841 700.266 370.987 679.615C359.854 699.63 351.424 712.16 344.601 719.069C341.03 722.685 337.695 724.981 334.348 725.866C332.595 726.329 330.833 726.406 329.123 726.082C327.458 725.766 325.995 725.099 324.694 724.239C322.125 722.539 319.831 719.839 317.609 716.58C315.368 713.294 313.117 709.307 310.706 704.945C310.348 704.298 309.987 703.643 309.621 702.98C305.462 695.434 300.754 686.893 294.713 678.682C285.032 695.423 276.59 707.451 268.875 715.217C264.824 719.295 260.901 722.272 257.005 724.134C253.072 726.012 249.049 726.803 244.961 726.332C240.95 725.869 237.246 724.233 233.745 721.756C230.232 719.271 226.776 715.836 223.291 711.572C216.32 703.043 209.068 690.992 200.956 676.069L204.418 675.363C212.529 690.283 219.711 702.199 226.554 710.572C229.977 714.759 233.274 718.009 236.503 720.294C239.746 722.587 242.775 723.806 245.636 724.135C248.418 724.456 251.403 723.976 254.761 722.371C258.156 720.75 261.807 718.032 265.758 714.055C273.654 706.107 282.463 693.426 292.758 675.348L294.22 672.781L296.128 675.235C303.186 684.316 308.499 693.956 313.069 702.248C313.438 702.917 313.802 703.577 314.162 704.228C316.578 708.599 318.791 712.514 320.976 715.719C323.179 718.951 325.272 721.331 327.372 722.721C328.406 723.405 329.349 723.786 330.202 723.947C331.009 724.1 331.876 724.085 332.903 723.814C335.117 723.228 337.951 721.485 341.479 717.913C348.459 710.844 357.365 697.47 369.484 675.36L371.442 671.789Z" fill="black"/>
<path d="M801.734 676.521C801.367 682.689 792.907 687.506 782.838 687.281C772.768 687.057 764.903 681.875 765.27 675.708C765.637 669.54 774.097 664.723 784.166 664.948C794.235 665.172 802.101 670.354 801.734 676.521Z" fill="#FFFF00"/>
<path d="M735.415 675.715C735.415 681.886 727.246 686.889 717.17 686.889C707.095 686.889 698.926 681.886 698.926 675.715C698.926 669.544 707.095 664.541 717.17 664.541C727.246 664.541 735.415 669.544 735.415 675.715Z" fill="#FFFF00"/>
<path d="M658.789 675.715C658.789 681.886 650.621 686.889 640.545 686.889C630.469 686.889 622.301 681.886 622.301 675.715C622.301 669.544 630.469 664.541 640.545 664.541C650.621 664.541 658.789 669.544 658.789 675.715Z" fill="#FFFF00"/>
<path d="M220.931 675.715C220.931 681.886 212.763 686.889 202.687 686.889C192.611 686.889 184.443 681.886 184.443 675.715C184.443 669.544 192.611 664.541 202.687 664.541C212.763 664.541 220.931 669.544 220.931 675.715Z" fill="#FFFF00"/>
<path d="M567.569 675.715C567.569 681.886 559.401 686.889 549.325 686.889C539.249 686.889 531.081 681.886 531.081 675.715C531.081 669.544 539.249 664.541 549.325 664.541C559.401 664.541 567.569 669.544 567.569 675.715Z" fill="#FFFF00"/>
<path d="M312.152 675.715C312.152 681.886 303.984 686.889 293.908 686.889C283.832 686.889 275.664 681.886 275.664 675.715C275.664 669.544 283.832 664.541 293.908 664.541C303.984 664.541 312.152 669.544 312.152 675.715Z" fill="#FFFF00"/>
<path d="M388.777 675.715C388.777 681.886 380.609 686.889 370.533 686.889C360.457 686.889 352.289 681.886 352.289 675.715C352.289 669.544 360.457 664.541 370.533 664.541C380.609 664.541 388.777 669.544 388.777 675.715Z" fill="#FFFF00"/>
<path d="M479.997 675.715C479.997 681.886 471.012 686.889 459.929 686.889C448.845 686.889 439.86 681.886 439.86 675.715C439.86 669.544 448.845 664.541 459.929 664.541C471.012 664.541 479.997 669.544 479.997 675.715Z" fill="#FFFF00"/>
<path fill-rule="evenodd" clip-rule="evenodd" d="M407.14 748.89L408.251 752.538C415.107 775.044 421.013 791.147 426.345 801.432C429.016 806.583 431.503 810.192 433.829 812.412C436.163 814.638 438.111 815.271 439.785 815.017C441.567 814.747 443.596 813.408 445.846 810.548C448.063 807.729 450.328 803.645 452.676 798.312C457.369 787.656 462.297 772.242 467.845 752.557L470.414 752.578C475.969 774.037 482.052 790.11 488.32 800.806C491.455 806.156 494.604 810.104 497.703 812.706C500.801 815.307 503.75 816.486 506.525 816.509C509.29 816.532 512.181 815.408 515.173 812.862C518.171 810.311 521.178 806.404 524.125 801.07C530.017 790.408 535.539 774.285 540.342 752.611L542.921 752.568C548.055 771.612 553.271 785.549 558.488 794.634C561.099 799.18 563.673 802.444 566.175 804.526C568.669 806.601 570.983 807.416 573.138 807.307C575.317 807.197 577.668 806.127 580.18 803.814C582.688 801.505 585.242 798.058 587.815 793.442C592.958 784.213 598.054 770.536 603.024 752.562L605.592 752.571C610.874 772.412 615.159 787.114 618.982 796.819C620.897 801.681 622.668 805.215 624.349 807.5C626.091 809.869 627.446 810.51 628.397 810.477C628.884 810.46 629.487 810.27 630.228 809.735C630.975 809.195 631.793 808.353 632.678 807.156C634.447 804.761 636.342 801.139 638.419 796.247C642.567 786.476 647.338 771.891 653.27 752.535L655.838 752.597C660.473 772.188 665.184 787.027 669.799 796.997C672.11 801.988 674.371 805.7 676.543 808.17C678.749 810.679 680.67 811.688 682.246 811.762C683.754 811.832 685.502 811.059 687.444 808.759C689.369 806.478 691.284 802.917 693.136 797.98C696.832 788.124 700.166 773.092 702.958 752.688L705.576 752.946C702.778 773.394 699.421 788.595 695.647 798.658C693.763 803.681 691.748 807.5 689.587 810.06C687.443 812.599 684.95 814.126 682.102 813.993C679.322 813.864 676.771 812.168 674.43 809.506C672.056 806.806 669.694 802.884 667.346 797.814C663.029 788.489 658.673 775.083 654.391 757.742C649.112 774.806 644.751 787.929 640.898 797.004C638.803 801.938 636.833 805.74 634.911 808.342C633.95 809.643 632.966 810.693 631.937 811.436C630.903 812.183 629.758 812.666 628.506 812.71C625.98 812.798 623.899 811.112 622.112 808.682C620.264 806.169 618.414 802.432 616.482 797.527C612.922 788.488 608.988 775.233 604.271 757.73C599.699 773.501 594.997 785.786 590.198 794.397C587.568 799.114 584.88 802.786 582.119 805.328C579.363 807.866 576.42 809.38 573.294 809.538C570.145 809.697 567.145 808.463 564.33 806.121C561.523 803.786 558.792 800.267 556.119 795.612C551.255 787.143 546.458 774.691 541.759 758.149C537.217 777.354 532.058 791.98 526.512 802.019C523.498 807.473 520.336 811.634 517.039 814.44C513.736 817.251 510.203 818.774 506.499 818.743C502.803 818.713 499.235 817.137 495.849 814.294C492.464 811.452 489.163 807.265 485.96 801.8C480.025 791.673 474.321 776.962 469.083 757.738C464.064 775.23 459.518 789.164 455.145 799.094C452.769 804.488 450.421 808.758 448.038 811.788C445.689 814.776 443.132 816.781 440.248 817.217C437.254 817.67 434.454 816.372 431.86 813.897C429.259 811.415 426.641 807.554 423.933 802.331C418.803 792.439 413.206 777.367 406.811 756.717C398.771 776.731 392.682 789.262 387.754 796.171C385.175 799.787 382.767 802.082 380.35 802.967C379.083 803.43 377.811 803.508 376.576 803.183C375.373 802.868 374.317 802.201 373.377 801.34C371.522 799.64 369.865 796.941 368.26 793.681C366.642 790.395 365.016 786.409 363.274 782.046C363.016 781.4 362.755 780.744 362.491 780.081C359.488 772.536 356.087 763.994 351.724 755.783C344.733 772.524 338.636 784.553 333.063 792.318C330.137 796.396 327.304 799.374 324.491 801.235C321.65 803.114 318.745 803.905 315.792 803.433C312.896 802.971 310.22 801.334 307.692 798.858C305.154 796.373 302.659 792.938 300.142 788.674C295.107 780.145 289.87 768.094 284.011 753.17L286.512 752.464C292.369 767.384 297.556 779.301 302.499 787.673C304.97 791.861 307.351 795.11 309.684 797.395C312.026 799.689 314.213 800.907 316.279 801.237C318.289 801.558 320.445 801.077 322.87 799.473C325.322 797.851 327.959 795.134 330.812 791.157C336.515 783.209 342.877 770.528 350.312 752.449L351.368 749.882L352.746 752.337C357.844 761.418 361.681 771.057 364.981 779.349C365.248 780.018 365.511 780.679 365.771 781.33C367.516 785.701 369.114 789.616 370.692 792.82C372.283 796.052 373.794 798.432 375.311 799.822C376.058 800.507 376.74 800.887 377.355 801.049C377.938 801.202 378.564 801.186 379.306 800.915C380.905 800.33 382.951 798.586 385.499 795.014C390.541 787.945 396.973 774.571 405.726 752.461L407.14 748.89Z" fill="black"/>
<path d="M717.906 753.623C717.641 759.79 711.531 764.607 704.259 764.383C696.986 764.158 691.306 758.976 691.571 752.809C691.836 746.642 697.946 741.825 705.218 742.049C712.49 742.274 718.171 747.456 717.906 753.623Z" fill="#FFFF00"/>
<path d="M670.009 752.816C670.009 758.988 664.109 763.991 656.832 763.991C649.555 763.991 643.656 758.988 643.656 752.816C643.656 746.645 649.555 741.642 656.832 741.642C664.109 741.642 670.009 746.645 670.009 752.816Z" fill="#FFFF00"/>
<path d="M614.668 752.816C614.668 758.988 608.769 763.991 601.492 763.991C594.215 763.991 588.316 758.988 588.316 752.816C588.316 746.645 594.215 741.642 601.492 741.642C608.769 741.642 614.668 746.645 614.668 752.816Z" fill="#FFFF00"/>
<path d="M298.438 752.816C298.438 758.988 292.538 763.991 285.261 763.991C277.984 763.991 272.085 758.988 272.085 752.816C272.085 746.645 277.984 741.642 285.261 741.642C292.538 741.642 298.438 746.645 298.438 752.816Z" fill="#FFFF00"/>
<path d="M548.787 752.816C548.787 758.988 542.888 763.991 535.611 763.991C528.334 763.991 522.434 758.988 522.434 752.816C522.434 746.645 528.334 741.642 535.611 741.642C542.888 741.642 548.787 746.645 548.787 752.816Z" fill="#FFFF00"/>
<path d="M364.319 752.816C364.319 758.988 358.42 763.991 351.143 763.991C343.866 763.991 337.966 758.988 337.966 752.816C337.966 746.645 343.866 741.642 351.143 741.642C358.42 741.642 364.319 746.645 364.319 752.816Z" fill="#FFFF00"/>
<path d="M419.659 752.816C419.659 758.988 413.76 763.991 406.483 763.991C399.206 763.991 393.307 758.988 393.307 752.816C393.307 746.645 399.206 741.642 406.483 741.642C413.76 741.642 419.659 746.645 419.659 752.816Z" fill="#FFFF00"/>
<path d="M485.541 752.816C485.541 758.988 479.052 763.991 471.047 763.991C463.042 763.991 456.553 758.988 456.553 752.816C456.553 746.645 463.042 741.642 471.047 741.642C479.052 741.642 485.541 746.645 485.541 752.816Z" fill="#FFFF00"/>
<path fill-rule="evenodd" clip-rule="evenodd" d="M371.442 816.813L372.98 820.46C382.474 842.966 390.651 859.07 398.035 869.355C401.733 874.506 405.176 878.115 408.397 880.335C411.628 882.561 414.325 883.193 416.643 882.94C419.111 882.67 421.921 881.331 425.035 878.47C428.105 875.651 431.241 871.567 434.492 866.235C440.99 855.578 447.814 840.165 455.496 820.48L459.052 820.5C466.744 841.96 475.167 858.033 483.845 868.728C488.186 874.078 492.546 878.026 496.838 880.629C501.127 883.23 505.211 884.408 509.052 884.431C512.881 884.454 516.883 883.331 521.026 880.785C525.178 878.233 529.341 874.327 533.422 868.993C541.58 858.33 549.226 842.208 555.876 820.533L559.447 820.491C566.555 839.535 573.778 853.472 581.002 862.557C584.616 867.102 588.18 870.367 591.645 872.448C595.098 874.523 598.302 875.338 601.286 875.23C604.303 875.12 607.558 874.05 611.037 871.737C614.509 869.428 618.046 865.981 621.608 861.364C628.729 852.136 635.784 838.458 642.666 820.485L646.222 820.494C653.536 840.335 659.469 855.037 664.762 864.742C667.413 869.603 669.866 873.138 672.193 875.423C674.605 877.792 676.481 878.433 677.799 878.4C678.472 878.383 679.307 878.193 680.334 877.657C681.368 877.118 682.501 876.275 683.726 875.078C686.175 872.683 688.798 869.062 691.674 864.17C697.418 854.398 704.024 839.813 712.238 820.458L715.793 820.519C722.211 840.111 728.734 854.95 735.125 864.92C738.324 869.91 741.454 873.623 744.462 876.093C747.517 878.602 750.176 879.611 752.359 879.685C754.447 879.755 756.867 878.982 759.556 876.682C762.221 874.401 764.873 870.84 767.436 865.903C772.555 856.047 777.171 841.015 781.037 820.611L784.661 820.868C780.787 841.317 776.139 856.518 770.914 866.581C768.305 871.604 765.515 875.423 762.523 877.982C759.554 880.522 756.103 882.049 752.159 881.916C748.31 881.786 744.778 880.09 741.537 877.429C738.249 874.729 734.979 870.807 731.728 865.737C725.751 856.412 719.718 843.006 713.79 825.665C706.481 842.728 700.442 855.851 695.107 864.927C692.207 869.861 689.479 873.663 686.818 876.265C685.487 877.566 684.124 878.616 682.7 879.359C681.269 880.105 679.682 880.589 677.949 880.633C674.452 880.721 671.571 879.035 669.097 876.605C666.537 874.091 663.976 870.355 661.301 865.45C656.371 856.41 650.925 843.155 644.393 825.652C638.063 841.424 631.552 853.709 624.907 862.319C621.266 867.037 617.544 870.708 613.721 873.251C609.904 875.789 605.83 877.303 601.502 877.461C597.142 877.619 592.987 876.385 589.09 874.044C585.203 871.709 581.422 868.19 577.721 863.535C570.987 855.065 564.344 842.614 557.837 826.072C551.549 845.277 544.406 859.903 536.726 869.941C532.553 875.396 528.176 879.557 523.611 882.362C519.036 885.174 514.145 886.697 509.016 886.666C503.899 886.635 498.959 885.06 494.27 882.217C489.584 879.375 485.012 875.188 480.578 869.723C472.36 859.596 464.462 844.885 457.21 825.661C450.26 843.152 443.966 857.087 437.911 867.017C434.622 872.411 431.37 876.681 428.071 879.71C424.817 882.699 421.278 884.704 417.284 885.14C413.139 885.593 409.261 884.294 405.67 881.819C402.069 879.338 398.444 875.476 394.694 870.254C387.592 860.361 379.841 845.29 370.987 824.639C359.854 844.654 351.424 857.185 344.601 864.093C341.03 867.709 337.695 870.005 334.348 870.89C332.595 871.353 330.833 871.431 329.123 871.106C327.458 870.79 325.995 870.123 324.694 869.263C322.125 867.563 319.831 864.863 317.609 861.604C315.368 858.318 313.117 854.331 310.706 849.969C310.348 849.322 309.987 848.667 309.621 848.004C305.462 840.458 300.754 831.917 294.713 823.706C285.032 840.447 276.59 852.475 268.875 860.241C264.824 864.319 260.901 867.297 257.005 869.158C253.072 871.036 249.049 871.827 244.961 871.356C240.95 870.894 237.246 869.257 233.745 866.781C230.232 864.295 226.776 860.86 223.291 856.596C216.32 848.067 209.068 836.016 200.956 821.093L204.418 820.387C212.529 835.307 219.711 847.223 226.554 855.596C229.977 859.783 233.274 863.033 236.503 865.318C239.746 867.611 242.775 868.83 245.636 869.16C248.418 869.48 251.403 869 254.761 867.396C258.156 865.774 261.807 863.056 265.758 859.079C273.654 851.131 282.463 838.45 292.758 820.372L294.22 817.805L296.128 820.26C303.186 829.34 308.499 838.98 313.069 847.272C313.438 847.941 313.802 848.602 314.162 849.252C316.578 853.623 318.791 857.538 320.976 860.743C323.179 863.975 325.272 866.355 327.372 867.745C328.406 868.429 329.349 868.81 330.202 868.971C331.009 869.124 331.876 869.109 332.903 868.838C335.117 868.252 337.951 866.509 341.479 862.937C348.459 855.868 357.365 842.494 369.484 820.384L371.442 816.813Z" fill="black"/>
<path d="M801.734 821.545C801.367 827.713 792.907 832.53 782.838 832.305C772.768 832.081 764.903 826.899 765.27 820.732C765.637 814.565 774.097 809.747 784.166 809.972C794.235 810.197 802.101 815.378 801.734 821.545Z" fill="#FFFF00"/>
<path d="M735.415 820.739C735.415 826.911 727.246 831.913 717.17 831.913C707.095 831.913 698.926 826.911 698.926 820.739C698.926 814.568 707.095 809.565 717.17 809.565C727.246 809.565 735.415 814.568 735.415 820.739Z" fill="#FFFF00"/>
<path d="M658.789 820.739C658.789 826.911 650.621 831.913 640.545 831.913C630.469 831.913 622.301 826.911 622.301 820.739C622.301 814.568 630.469 809.565 640.545 809.565C650.621 809.565 658.789 814.568 658.789 820.739Z" fill="#FFFF00"/>
<path d="M220.931 820.739C220.931 826.911 212.763 831.913 202.687 831.913C192.611 831.913 184.443 826.911 184.443 820.739C184.443 814.568 192.611 809.565 202.687 809.565C212.763 809.565 220.931 814.568 220.931 820.739Z" fill="#FFFF00"/>
<path d="M567.569 820.739C567.569 826.911 559.401 831.913 549.325 831.913C539.249 831.913 531.081 826.911 531.081 820.739C531.081 814.568 539.249 809.565 549.325 809.565C559.401 809.565 567.569 814.568 567.569 820.739Z" fill="#FFFF00"/>
<path d="M312.152 820.739C312.152 826.911 303.984 831.913 293.908 831.913C283.832 831.913 275.664 826.911 275.664 820.739C275.664 814.568 283.832 809.565 293.908 809.565C303.984 809.565 312.152 814.568 312.152 820.739Z" fill="#FFFF00"/>
<path d="M388.777 820.739C388.777 826.911 380.609 831.913 370.533 831.913C360.457 831.913 352.289 826.911 352.289 820.739C352.289 814.568 360.457 809.565 370.533 809.565C380.609 809.565 388.777 814.568 388.777 820.739Z" fill="#FFFF00"/>
<path d="M479.997 820.739C479.997 826.911 471.012 831.913 459.929 831.913C448.845 831.913 439.86 826.911 439.86 820.739C439.86 814.568 448.845 809.565 459.929 809.565C471.012 809.565 479.997 814.568 479.997 820.739Z" fill="#FFFF00"/>
<defs>
<linearGradient id="paint0_linear_207_9" x1="495" y1="193.8" x2="495" y2="1140" gradientUnits="userSpaceOnUse">
<stop offset="0.0406369" stop-color="white"/>
<stop offset="0.501713" stop-color="#3C8D0D"/>
<stop offset="1" stop-color="#112704"/>
</linearGradient>
<linearGradient id="paint1_linear_207_9" x1="495" y1="102.6" x2="495" y2="1413.6" gradientUnits="userSpaceOnUse">
<stop offset="0.104024" stop-color="white"/>
<stop offset="0.522817" stop-color="#3C8D0D"/>
<stop offset="1" stop-color="#112704"/>
</linearGradient>
<linearGradient id="paint2_linear_207_9" x1="495" y1="0" x2="495" y2="1140" gradientUnits="userSpaceOnUse">
<stop offset="0.0454864" stop-color="white"/>
<stop offset="0.598619" stop-color="#3C8D0D"/>
<stop offset="1" stop-color="#112704"/>
</linearGradient>
</defs>
</svg>
