<svg width="50" height="50" viewBox="0 0 50 50" fill="none" xmlns="http://www.w3.org/2000/svg">
<path d="M14 0H37.5V9.09091H14V0Z" fill="black"/>
<path d="M50 27.2727C50 39.8247 38.8071 50 25 50C11.1929 50 0 39.8247 0 27.2727C0 14.7208 11.1929 4.54545 25 4.54545C38.8071 4.54545 50 14.7208 50 27.2727Z" fill="url(#paint0_linear_182_20)"/>
<path d="M22.2589 38.6636C22.1989 38.6636 22.1489 38.6455 22.1089 38.6091C22.0689 38.5909 22.0289 38.5727 21.9889 38.5545C21.9089 38.4454 21.8489 38.3364 21.8089 38.2273C21.7889 38.1182 21.7689 38.0091 21.7489 37.9C21.7289 37.8091 21.7189 37.7091 21.7189 37.6C21.7189 37.5455 21.7189 37.4818 21.7189 37.4091C21.7189 37.3545 21.7089 37.2909 21.6889 37.2182C21.6689 37.1273 21.6489 37.0364 21.6289 36.9455C21.6089 36.8727 21.5889 36.8 21.5689 36.7273C21.5089 36.4909 21.3989 36.3 21.2389 36.1545C21.1389 36.1 21.0589 36.0273 20.9989 35.9364C20.8589 35.8091 20.7289 35.6727 20.6089 35.5273C20.4889 35.4 20.3789 35.2636 20.2789 35.1182L20.1289 34.8727C19.9889 34.7273 19.8689 34.5727 19.7689 34.4091C19.6889 34.2455 19.6089 34.0818 19.5289 33.9182L19.3489 33.4818L19.2589 33.3182C19.2389 33.1727 19.2089 33.0364 19.1689 32.9091C19.1289 32.7636 19.0889 32.6273 19.0489 32.5C19.0289 32.4091 19.0089 32.3364 18.9889 32.2818C18.9689 32.2091 18.9489 32.1364 18.9289 32.0636C18.9089 31.9182 18.8889 31.7727 18.8689 31.6273C18.8489 31.4818 18.8189 31.3455 18.7789 31.2182C18.7589 31.1818 18.7489 31.1182 18.7489 31.0273L18.6589 30.2636C18.6389 30.0636 18.6189 29.8727 18.5989 29.6909C18.5789 29.5091 18.5489 29.3273 18.5089 29.1455V29.0364C18.5089 28.8909 18.4989 28.7455 18.4789 28.6C18.4589 28.4545 18.4389 28.3182 18.4189 28.1909C18.3989 28.1182 18.3889 28.0545 18.3889 28C18.3889 27.9273 18.3889 27.8545 18.3889 27.7818C18.4289 27.6909 18.4289 27.6091 18.3889 27.5364C18.3689 27.4455 18.3589 27.3545 18.3589 27.2636C18.3589 27.1545 18.3589 27.0636 18.3589 26.9909C18.3589 26.8091 18.3489 26.6364 18.3289 26.4727C18.3289 26.2909 18.3289 26.1091 18.3289 25.9273C18.3289 25.7273 18.3289 25.5273 18.3289 25.3273C18.3489 25.1273 18.3689 24.9364 18.3889 24.7545V24.5636C18.4089 24.1636 18.4589 23.7727 18.5389 23.3909C18.6189 23.0091 18.7189 22.6364 18.8389 22.2727L19.1989 21.1818C19.2389 21.0727 19.2789 20.9727 19.3189 20.8818C19.3589 20.7727 19.3989 20.6727 19.4389 20.5818C19.4989 20.4364 19.5589 20.2909 19.6189 20.1455C19.6789 19.9818 19.7289 19.8273 19.7689 19.6818C19.8089 19.5 19.8589 19.3182 19.9189 19.1364C19.9789 18.9364 20.0289 18.7455 20.0689 18.5636C20.1489 18.2909 20.2589 18.0273 20.3989 17.7727C20.5389 17.5182 20.7189 17.3 20.9389 17.1182C20.9789 17.0818 21.0189 17.0455 21.0589 17.0091C21.0989 16.9545 21.1489 16.9182 21.2089 16.9C21.3089 16.8455 21.3989 16.7909 21.4789 16.7364C21.5789 16.6818 21.6789 16.6273 21.7789 16.5727C22.1789 16.3727 22.5789 16.2091 22.9789 16.0818L24.1189 15.6727C24.2389 15.6364 24.3789 15.6 24.5389 15.5636C24.6389 15.5273 24.7389 15.5091 24.8389 15.5091C24.9389 15.4909 25.0289 15.4727 25.1089 15.4545C25.7089 15.3455 26.2989 15.3455 26.8789 15.4545C27.0989 15.5091 27.3189 15.5909 27.5389 15.7C27.9189 15.8636 28.2989 16.0727 28.6789 16.3273C28.8989 16.4909 29.1089 16.6727 29.3089 16.8727C29.5089 17.0545 29.6789 17.2727 29.8189 17.5273C29.9589 17.7636 30.0889 18 30.2089 18.2364C30.2689 18.4364 30.3689 18.6091 30.5089 18.7545L30.8689 19.2455C30.9089 19.2818 30.9389 19.3273 30.9589 19.3818C30.9989 19.4364 31.0289 19.4818 31.0489 19.5182C31.1889 19.8273 31.2289 20.1636 31.1689 20.5273C31.1089 20.8182 31.0089 21.0545 30.8689 21.2364C30.7889 21.3455 30.7289 21.4182 30.6889 21.4545C30.4089 21.7273 30.2689 22.0727 30.2689 22.4909V22.5727C30.2489 22.7545 30.2389 22.9455 30.2389 23.1455C30.2389 23.3273 30.2289 23.5182 30.2089 23.7182V24.8636C30.1889 24.9545 30.1789 25.0545 30.1789 25.1636C30.1789 25.2545 30.1689 25.3455 30.1489 25.4364C30.1289 25.4909 30.1189 25.5545 30.1189 25.6273C30.1189 25.6818 30.1189 25.7455 30.1189 25.8182C30.1189 26 30.0689 26.1818 29.9689 26.3636C29.8289 26.5455 29.6389 26.6091 29.3989 26.5545C29.2189 26.5 29.0989 26.3909 29.0389 26.2273C29.0189 26.1727 28.9889 26.1182 28.9489 26.0636C28.9289 26.0091 28.9089 25.9455 28.8889 25.8727C28.8689 25.7818 28.8489 25.6818 28.8289 25.5727C28.8289 25.4636 28.8289 25.3636 28.8289 25.2727C28.8289 25.1455 28.8189 25.0273 28.7989 24.9182C28.7989 24.7909 28.7989 24.6636 28.7989 24.5364V24.4545C28.7789 24.3273 28.7589 24.2091 28.7389 24.1C28.7389 23.9727 28.7389 23.8455 28.7389 23.7182C28.7189 23.5182 28.6989 23.3182 28.6789 23.1182C28.6589 22.9182 28.6289 22.7273 28.5889 22.5455L28.3189 21.8909C28.2389 21.7455 28.1589 21.6 28.0789 21.4545C28.0189 21.3091 27.9489 21.1636 27.8689 21.0182C27.8289 20.8909 27.7689 20.7727 27.6889 20.6636C27.6089 20.5545 27.5289 20.4364 27.4489 20.3091C27.2889 20.0364 27.1089 19.8 26.9089 19.6C26.8689 19.5636 26.8289 19.5273 26.7889 19.4909C26.7489 19.4545 26.7089 19.4182 26.6689 19.3818C26.5889 19.3455 26.5089 19.3091 26.4289 19.2727C26.3689 19.2182 26.3089 19.1545 26.2489 19.0818C26.2289 19.0636 26.1989 19.0545 26.1589 19.0545C26.1389 19.0364 26.1089 19.0182 26.0689 19C25.6489 18.8909 25.2789 18.8818 24.9589 18.9727L24.5089 19.0545C24.4289 19.0545 24.3489 19.0636 24.2689 19.0818C24.2089 19.0818 24.1389 19.0909 24.0589 19.1091L23.8489 19.1909C23.7889 19.2091 23.7189 19.2727 23.6389 19.3818C23.6389 19.4545 23.6189 19.5273 23.5789 19.6C23.5589 19.6545 23.5389 19.7091 23.5189 19.7636C23.5189 19.8 23.5189 19.8364 23.5189 19.8727C23.4589 20.1273 23.3789 20.3727 23.2789 20.6091C23.1789 20.8455 23.0689 21.0909 22.9489 21.3455C22.9089 21.4364 22.8489 21.5364 22.7689 21.6455C22.7289 21.7 22.6889 21.7545 22.6489 21.8091C22.6089 21.8455 22.5789 21.9091 22.5589 22L22.3789 22.2455C22.2789 22.3364 22.2089 22.4636 22.1689 22.6273C22.1089 22.7727 22.0589 22.9273 22.0189 23.0909C21.9989 23.2364 21.9689 23.3818 21.9289 23.5273C21.8689 23.7455 21.8289 23.9636 21.8089 24.1818C21.7889 24.4 21.7689 24.6182 21.7489 24.8364V26.6364C21.7489 26.7091 21.7389 26.7727 21.7189 26.8273C21.7189 26.8818 21.7189 26.9455 21.7189 27.0182C21.7189 27.1636 21.7089 27.3182 21.6889 27.4818C21.6889 27.6455 21.6989 27.8 21.7189 27.9455C21.7389 28 21.7489 28.0818 21.7489 28.1909C21.7489 28.4273 21.7789 28.6727 21.8389 28.9273C21.8389 29 21.8489 29.0455 21.8689 29.0636C21.9689 29.1545 21.9889 29.2455 21.9289 29.3364C21.9289 29.3909 21.9389 29.4273 21.9589 29.4455C22.0389 29.6818 22.1089 29.9182 22.1689 30.1545C22.2289 30.3727 22.2989 30.6 22.3789 30.8364C22.4589 31.0364 22.5389 31.2364 22.6189 31.4364C22.7189 31.6364 22.8389 31.8364 22.9789 32.0364C23.1389 32.2545 23.3689 32.4273 23.6689 32.5545C23.7889 32.5909 23.9089 32.6273 24.0289 32.6636C24.1489 32.7 24.2689 32.7273 24.3889 32.7455C24.5289 32.7636 24.6589 32.7818 24.7789 32.8C24.8989 32.8 25.0189 32.8 25.1389 32.8C25.2989 32.8 25.4589 32.7909 25.6189 32.7727C25.7789 32.7545 25.9289 32.7364 26.0689 32.7182C26.2889 32.6818 26.4889 32.6455 26.6689 32.6091C26.8689 32.5727 27.0689 32.5364 27.2689 32.5C27.6089 32.4455 27.9189 32.3545 28.1989 32.2273C28.2189 32.2273 28.2489 32.2091 28.2889 32.1727C28.4489 32.0818 28.5989 31.9909 28.7389 31.9C28.8989 31.7909 29.0489 31.6727 29.1889 31.5455C29.3089 31.4364 29.4289 31.3273 29.5489 31.2182C29.6889 31.1091 29.8089 30.9909 29.9089 30.8636L30.1789 30.5091C30.2989 30.3091 30.4289 30.1636 30.5689 30.0727C30.6489 30 30.7089 29.9364 30.7489 29.8818C30.7889 29.8273 30.8389 29.8 30.8989 29.8C31.0189 29.8 31.1389 29.7909 31.2589 29.7727C31.3789 29.7545 31.5089 29.7545 31.6489 29.7727C31.7689 29.7909 31.8789 29.8273 31.9789 29.8818C32.0989 29.9182 32.2089 29.9545 32.3089 29.9909C32.3489 30.0091 32.3989 30.0455 32.4589 30.1C32.5589 30.2091 32.6389 30.3182 32.6989 30.4273C32.7789 30.5182 32.8289 30.6273 32.8489 30.7545C32.8889 30.9 32.9089 31 32.9089 31.0545C32.9289 31.1636 32.9089 31.2909 32.8489 31.4364C32.7689 31.6 32.6489 31.7727 32.4889 31.9545C32.3889 32.0273 32.2889 32.1182 32.1889 32.2273C32.0889 32.3364 31.9889 32.4364 31.8889 32.5273C31.7489 32.6545 31.6189 32.7909 31.4989 32.9364C31.3789 33.0636 31.2389 33.1909 31.0789 33.3182C31.0189 33.3545 30.9589 33.4 30.8989 33.4545C30.8589 33.4909 30.8189 33.5273 30.7789 33.5636C30.5989 33.7273 30.3989 33.8727 30.1789 34C29.9789 34.1091 29.7689 34.2091 29.5489 34.3L28.7389 34.6273C28.5389 34.7 28.3289 34.7636 28.1089 34.8182C27.9089 34.8727 27.6989 34.9273 27.4789 34.9818C27.2789 35.0364 27.0689 35.0909 26.8489 35.1455C26.6489 35.1818 26.4389 35.2182 26.2189 35.2545L25.0489 35.4182C24.9089 35.4364 24.7589 35.4545 24.5989 35.4727C24.4589 35.5091 24.3089 35.5182 24.1489 35.5C23.9489 35.4818 23.7389 35.5364 23.5189 35.6636C23.3189 35.7545 23.2089 35.8818 23.1889 36.0455C23.1489 36.1545 23.1289 36.2364 23.1289 36.2909L23.0389 37C23.0389 37.1273 23.0289 37.2636 23.0089 37.4091C23.0089 37.5545 22.9989 37.7 22.9789 37.8455C22.9589 37.9182 22.9389 37.9909 22.9189 38.0636C22.8989 38.1545 22.8689 38.2455 22.8289 38.3364C22.7289 38.5545 22.5389 38.6636 22.2589 38.6636Z" fill="black"/>
<defs>
<linearGradient id="paint0_linear_182_20" x1="25" y1="0" x2="25" y2="50" gradientUnits="userSpaceOnUse">
<stop stop-color="#3B96E0"/>
<stop offset="0.333333" stop-color="#8B38D3"/>
<stop offset="0.666667" stop-color="#26207A"/>
<stop offset="1" stop-color="#37207A"/>
</linearGradient>
</defs>
</svg>
