<svg width="50" height="50" viewBox="0 0 50 50" fill="none" xmlns="http://www.w3.org/2000/svg">
<path d="M12.5 0H37.5V11.4348H12.5V0Z" fill="black"/>
<path d="M50 27.1305C50 39.761 38.8071 50 25 50C11.1929 50 0 39.761 0 27.1305C0 14.5 11.1929 4.26096 25 4.26096C38.8071 4.26096 50 14.5 50 27.1305Z" fill="url(#paint0_linear_178_16)"/>
<path d="M22.7591 38.8946C22.6591 38.9312 22.5791 38.922 22.5191 38.8671C22.2991 38.7756 22.1591 38.6201 22.0991 38.4006V38.3457C22.0791 38.181 22.0591 38.0164 22.0391 37.8517C22.0191 37.687 21.9991 37.5315 21.9791 37.3852C21.9791 37.3486 21.9691 37.3028 21.9491 37.248C21.9491 37.2114 21.9491 37.1748 21.9491 37.1382C21.9291 37.0833 21.9191 37.0284 21.9191 36.9735C21.9191 36.9186 21.9191 36.8637 21.9191 36.8089C21.9191 36.6625 21.8991 36.5344 21.8591 36.4247C21.8191 36.3149 21.7791 36.2051 21.7391 36.0953C21.6991 36.0222 21.6591 35.9764 21.6191 35.9581C21.5391 35.8666 21.4791 35.766 21.4391 35.6562C21.3991 35.5648 21.3491 35.4641 21.2891 35.3544V35.3269C21.1891 35.0708 21.1291 34.9061 21.1091 34.8329C21.0891 34.7415 21.0791 34.5676 21.0791 34.3115V33.9547C21.0791 33.7718 21.1391 33.6254 21.2591 33.5157C21.2791 33.4791 21.2991 33.4425 21.3191 33.4059C21.3591 33.3693 21.3891 33.3327 21.4091 33.2961C21.4491 33.1863 21.4491 33.104 21.4091 33.0491C21.3291 32.9027 21.2691 32.7564 21.2291 32.61C21.1891 32.4454 21.1491 32.2807 21.1091 32.116V31.8142C21.1291 31.7044 21.1391 31.6038 21.1391 31.5123C21.1591 31.4025 21.1791 31.2927 21.1991 31.183C21.2391 31.0183 21.2391 30.8353 21.1991 30.6341C21.1591 30.5243 21.1391 30.442 21.1391 30.3871C21.1191 30.3322 21.0991 30.2773 21.0791 30.2224C21.0791 30.1676 21.0791 30.1127 21.0791 30.0578C21.0791 29.8382 21.0491 29.637 20.9891 29.454C20.9491 29.3442 20.9291 29.2528 20.9291 29.1796C20.9291 28.8869 20.9091 28.6033 20.8691 28.3288C20.8291 28.0361 20.7891 27.7434 20.7491 27.4507C20.7491 27.4141 20.7391 27.3958 20.7191 27.3958C20.7191 27.3775 20.7191 27.3592 20.7191 27.3409C20.7191 27.1945 20.6991 27.0481 20.6591 26.9018C20.6191 26.7371 20.5791 26.5908 20.5391 26.4627C20.5191 26.4261 20.5091 26.3804 20.5091 26.3255C20.5091 26.2706 20.4991 26.2248 20.4791 26.1883C20.4591 26.0602 20.4391 25.9413 20.4191 25.8315C20.4191 25.7217 20.3991 25.6028 20.3591 25.4747V25.365C20.3391 25.1637 20.2991 24.9716 20.2391 24.7886C20.1991 24.6057 20.1591 24.4227 20.1191 24.2398C20.1191 24.1666 20.1091 24.0934 20.0891 24.0202C20.0891 23.947 20.0791 23.8739 20.0591 23.8007L19.9691 23.4988C19.9491 23.4256 19.9291 23.3524 19.9091 23.2793C19.9091 23.1878 19.8991 23.1054 19.8791 23.0323C19.8591 22.9042 19.8491 22.7853 19.8491 22.6755C19.8491 22.5474 19.8391 22.4194 19.8191 22.2913C19.7991 22.1632 19.7791 22.0443 19.7591 21.9345C19.7591 21.8248 19.7391 21.715 19.6991 21.6052C19.6791 21.4588 19.6591 21.3125 19.6391 21.1661C19.6391 21.0014 19.6191 20.8459 19.5791 20.6996C19.5191 20.4068 19.3991 20.1416 19.2191 19.9037C18.8391 19.3914 18.6791 18.8151 18.7391 18.1748C18.7791 17.9735 18.8691 17.7906 19.0091 17.6259C19.0291 17.5893 19.0791 17.5344 19.1591 17.4612C19.2991 17.2966 19.4591 17.1777 19.6391 17.1045C19.8391 17.013 20.0491 16.9581 20.2691 16.9398C20.6091 16.8849 20.9191 16.8026 21.1991 16.6928C21.7391 16.5465 22.2791 16.4367 22.8191 16.3635C23.1791 16.3086 23.5391 16.2812 23.8991 16.2812H24.1991C24.3591 16.2446 24.5191 16.2263 24.6791 16.2263C24.8591 16.2263 25.0291 16.2263 25.1891 16.2263H25.4591C25.5791 16.2263 25.6791 16.1897 25.7591 16.1165L26.1191 15.9244C26.1791 15.8878 26.2391 15.8878 26.2991 15.9244C26.3591 15.961 26.4191 15.9884 26.4791 16.0067C26.5591 16.025 26.6291 16.0525 26.6891 16.0891C26.7891 16.1257 26.8791 16.1623 26.9591 16.1988C27.0391 16.2354 27.1191 16.272 27.1991 16.3086C27.2391 16.3452 27.2891 16.3727 27.3491 16.391C27.4091 16.4093 27.4691 16.4275 27.5291 16.4458L28.0991 16.5556C28.2591 16.5739 28.3991 16.6105 28.5191 16.6654C28.6591 16.702 28.7991 16.7477 28.9391 16.8026C29.0991 16.8575 29.2391 16.9398 29.3591 17.0496C29.4791 17.1411 29.5991 17.2509 29.7191 17.3789C29.9991 17.6168 30.1791 17.9186 30.2591 18.2845C30.2791 18.4309 30.3291 18.6047 30.4091 18.806C30.4491 18.934 30.4691 19.0621 30.4691 19.1902C30.4691 19.3183 30.4791 19.4555 30.4991 19.6018C30.4991 19.6018 30.4991 19.6476 30.4991 19.7391C30.4791 19.9403 30.4491 20.1507 30.4091 20.3702C30.3691 20.5715 30.3191 20.7728 30.2591 20.974C30.1991 21.157 30.1291 21.3491 30.0491 21.5503C29.9891 21.7516 29.9091 21.9437 29.8091 22.1266C29.6891 22.4011 29.5191 22.6664 29.2991 22.9225C29.1591 23.0872 29.0191 23.261 28.8791 23.4439C28.7591 23.6086 28.6191 23.7732 28.4591 23.9379C28.3791 24.0111 28.2991 24.0934 28.2191 24.1849C28.1391 24.2581 28.0591 24.3313 27.9791 24.4044L27.6191 24.7338V24.7886C27.6191 24.8252 27.6391 24.8435 27.6791 24.8435H28.1291C28.4091 24.8618 28.6891 24.8984 28.9691 24.9533C29.2491 24.9899 29.5191 25.0448 29.7791 25.118C29.8391 25.1363 29.8891 25.1546 29.9291 25.1728C29.9891 25.1911 30.0491 25.2186 30.1091 25.2552L30.4691 25.4473C30.5891 25.5205 30.6991 25.5936 30.7991 25.6668C30.8991 25.74 30.9691 25.8498 31.0091 25.9962C31.0491 26.0876 31.0991 26.1791 31.1591 26.2706C31.2591 26.4352 31.3491 26.6091 31.4291 26.792C31.5091 26.9567 31.5891 27.1305 31.6691 27.3134C31.7091 27.3866 31.7391 27.4598 31.7591 27.533C31.7991 27.5879 31.8291 27.6519 31.8491 27.7251C31.9491 27.9812 32.0491 28.2374 32.1491 28.4935C32.2491 28.7496 32.3291 29.0149 32.3891 29.2894L32.4791 29.9755C32.5191 30.0852 32.5191 30.2041 32.4791 30.3322C32.4591 30.442 32.4391 30.5518 32.4191 30.6615C32.3991 30.753 32.3791 30.8536 32.3591 30.9634C32.2991 31.2013 32.2091 31.43 32.0891 31.6495C32.0291 31.7593 31.9491 31.8599 31.8491 31.9514C31.5891 32.2441 31.3191 32.4728 31.0391 32.6375C30.8991 32.7106 30.7591 32.793 30.6191 32.8845C30.4991 32.9759 30.3591 33.0674 30.1991 33.1589C29.8991 33.3235 29.5591 33.4974 29.1791 33.6803C29.0791 33.7169 28.9691 33.7626 28.8491 33.8175C28.7491 33.8724 28.6491 33.9182 28.5491 33.9547C28.2291 34.0828 27.9191 34.2109 27.6191 34.339C27.3191 34.467 27.0191 34.5859 26.7191 34.6957C26.3991 34.8055 26.0891 34.9153 25.7891 35.025C25.4891 35.1348 25.1691 35.2354 24.8291 35.3269C24.7491 35.3452 24.6691 35.3635 24.5891 35.3818C24.5291 35.4001 24.4591 35.4184 24.3791 35.4367C24.0191 35.4916 23.7291 35.6654 23.5091 35.9581C23.4291 36.0313 23.3891 36.1228 23.3891 36.2325C23.3691 36.3057 23.3491 36.3698 23.3291 36.4247C23.3291 36.4978 23.3291 36.571 23.3291 36.6442C23.3091 36.6991 23.2991 36.7723 23.2991 36.8637V37.8243C23.2991 37.9157 23.2991 38.0072 23.2991 38.0987C23.2991 38.2085 23.2791 38.3091 23.2391 38.4006C23.1991 38.6018 23.0391 38.7665 22.7591 38.8946ZM23.4491 24.4868C23.4691 24.5051 23.4791 24.5142 23.4791 24.5142C23.4791 24.4959 23.4891 24.4868 23.5091 24.4868C23.5291 24.4685 23.5391 24.4593 23.5391 24.4593C23.5591 24.4593 23.5691 24.4593 23.5691 24.4593C23.6691 24.4776 23.7691 24.4593 23.8691 24.4044C23.9691 24.3313 24.0691 24.2672 24.1691 24.2123C24.2891 24.1391 24.4091 24.066 24.5291 23.9928C24.7091 23.883 24.8791 23.7641 25.0391 23.636C25.2191 23.4897 25.3891 23.3433 25.5491 23.1969C25.7891 22.9591 26.0191 22.7212 26.2391 22.4834C26.4591 22.2273 26.6591 21.962 26.8391 21.6875C26.9391 21.5229 27.0391 21.3674 27.1391 21.221C27.2391 21.0563 27.3291 20.8825 27.4091 20.6996C27.5091 20.4617 27.5791 20.1873 27.6191 19.8763C27.6591 19.6933 27.6491 19.5287 27.5891 19.3823C27.5291 19.2359 27.4391 19.1353 27.3191 19.0804C26.9591 18.934 26.6191 18.8609 26.2991 18.8609C26.0991 18.8609 25.9091 18.8609 25.7291 18.8609C25.5491 18.8609 25.3691 18.87 25.1891 18.8883C25.0291 18.9066 24.8691 18.9249 24.7091 18.9432C24.5491 18.9615 24.3891 18.9889 24.2291 19.0255C24.0891 19.0621 23.9391 19.1079 23.7791 19.1627C23.6391 19.1993 23.4891 19.2359 23.3291 19.2725C23.1091 19.3274 22.9691 19.4463 22.9091 19.6293C22.8691 19.6842 22.8491 19.7665 22.8491 19.8763V20.3154C22.8291 20.4983 22.8291 20.6813 22.8491 20.8642C22.8691 21.0472 22.8891 21.2301 22.9091 21.4131L22.9391 21.4405C22.9191 21.5686 22.9191 21.6967 22.9391 21.8248C22.9791 21.9528 23.0091 22.09 23.0291 22.2364C23.0291 22.2913 23.0591 22.337 23.1191 22.3736C23.1991 22.4102 23.2091 22.4834 23.1491 22.5932C23.1491 22.5932 23.1391 22.6023 23.1191 22.6206C23.1191 22.6206 23.1291 22.6298 23.1491 22.6481C23.1891 22.6663 23.1991 22.7029 23.1791 22.7578C23.1591 22.7944 23.1491 22.831 23.1491 22.8676C23.1491 23.014 23.1591 23.1146 23.1791 23.1695C23.1991 23.2061 23.2091 23.2518 23.2091 23.3067C23.2091 23.3799 23.2191 23.4622 23.2391 23.5537C23.2591 23.6269 23.2791 23.7001 23.2991 23.7732C23.2991 23.8098 23.3191 23.819 23.3591 23.8007C23.3791 23.7824 23.4091 23.7732 23.4491 23.7732C23.4691 23.7732 23.4791 23.8007 23.4791 23.8556V23.9379C23.3791 24.066 23.3591 24.2032 23.4191 24.3495V24.4593C23.4391 24.4593 23.4491 24.4685 23.4491 24.4868ZM23.9891 32.857C24.0491 32.857 24.1091 32.857 24.1691 32.857C24.2291 32.857 24.2991 32.8479 24.3791 32.8296C24.7391 32.7747 25.1191 32.6741 25.5191 32.5277L26.6891 32.0337C27.0091 31.8873 27.3191 31.7501 27.6191 31.6221C27.9191 31.4757 28.2291 31.3385 28.5491 31.2104C28.8891 31.0457 29.1991 30.8262 29.4791 30.5518C29.6591 30.3871 29.7491 30.1858 29.7491 29.948V29.8108C29.7291 29.7742 29.7191 29.7468 29.7191 29.7285C29.7191 29.6919 29.7091 29.6553 29.6891 29.6187C29.6291 29.326 29.5391 29.0515 29.4191 28.7954C29.3191 28.5209 29.2091 28.2465 29.0891 27.9721C29.0691 27.8989 29.0391 27.8349 28.9991 27.78C28.9591 27.7068 28.9191 27.6336 28.8791 27.5604C28.8191 27.4507 28.7391 27.3866 28.6391 27.3683C28.4591 27.3134 28.2891 27.286 28.1291 27.286H27.6491C27.1091 27.2677 26.5591 27.2951 25.9991 27.3683C25.4391 27.4415 24.8691 27.5513 24.2891 27.6976L24.0791 27.78C24.0591 27.7983 24.0391 27.8074 24.0191 27.8074C24.0191 27.8074 24.0091 27.8166 23.9891 27.8349C23.9291 27.8897 23.9191 27.9446 23.9591 27.9995L24.0191 28.0544C24.0791 28.1093 24.0891 28.1642 24.0491 28.2191C24.0091 28.274 23.9891 28.3471 23.9891 28.4386C23.9891 28.5118 23.9891 28.585 23.9891 28.6582C23.9891 28.7131 23.9991 28.7771 24.0191 28.8503C24.0391 28.9235 24.0491 28.9966 24.0491 29.0698C24.0491 29.143 24.0491 29.2162 24.0491 29.2894V29.6187C24.0491 29.8016 24.0891 29.9389 24.1691 30.0303C24.2091 30.1035 24.2291 30.1767 24.2291 30.2499C24.2491 30.3231 24.2591 30.3962 24.2591 30.4694C24.2591 30.5609 24.2291 30.6615 24.1691 30.7713C24.1091 30.8628 24.0991 30.9726 24.1391 31.1006C24.1591 31.1372 24.1891 31.1738 24.2291 31.2104C24.2691 31.3385 24.2491 31.4391 24.1691 31.5123C24.1091 31.6038 24.0891 31.6861 24.1091 31.7593C24.1091 31.869 24.0991 31.9514 24.0791 32.0063C24.0591 32.0429 24.0291 32.0886 23.9891 32.1435C23.9691 32.1984 23.9291 32.2441 23.8691 32.2807C23.7691 32.3539 23.6991 32.4637 23.6591 32.61C23.6191 32.6832 23.5991 32.7472 23.5991 32.8021C23.5991 32.8387 23.6691 32.8479 23.8091 32.8296C23.8491 32.8296 23.8791 32.8387 23.8991 32.857C23.9391 32.857 23.9691 32.857 23.9891 32.857Z" fill="black"/>
<defs>
<linearGradient id="paint0_linear_178_16" x1="25" y1="0" x2="25" y2="50" gradientUnits="userSpaceOnUse">
<stop stop-color="#3BDBE0"/>
<stop offset="0.245" stop-color="#38D395"/>
<stop offset="0.63" stop-color="#207A2B"/>
<stop offset="1" stop-color="#207A26"/>
</linearGradient>
</defs>
</svg>
