<svg width="50" height="50" viewBox="0 0 50 50" fill="none" xmlns="http://www.w3.org/2000/svg">
<path d="M12.2449 0H37.7551V7.72192H12.2449V0Z" fill="black"/>
<path d="M50 27.2727C50 39.8246 38.8071 50 25 50C11.1929 50 0 39.8246 0 27.2727C0 14.7208 11.1929 4.54542 25 4.54542C38.8071 4.54542 50 14.7208 50 27.2727Z" fill="url(#paint0_linear_155_8)"/>
<path d="M19.6865 37.6818C19.6665 37.6818 19.5965 37.6636 19.4765 37.6273C19.4165 37.6091 19.3465 37.5454 19.2665 37.4364C19.2465 37.3818 19.2265 37.3273 19.2065 37.2727C19.1865 37.2182 19.1765 37.1636 19.1765 37.1091C19.1165 36.8364 19.0865 36.5636 19.0865 36.2909V34.4091C19.0865 34.2454 19.0665 34.0818 19.0265 33.9182C18.9865 33.7545 18.9465 33.5909 18.9065 33.4273C18.9065 33.3909 18.8865 33.3363 18.8465 33.2636C18.8265 33.2091 18.7965 33.1545 18.7565 33.1C18.7165 33.0273 18.6765 32.9636 18.6365 32.9091C18.5565 32.7818 18.4965 32.6454 18.4565 32.5C18.4165 32.3545 18.3865 32.2182 18.3665 32.0909C18.3465 31.8909 18.3465 31.7 18.3665 31.5182C18.4065 31.4091 18.4365 31.3091 18.4565 31.2182C18.4765 31.1091 18.5065 31.0091 18.5465 30.9182C18.6065 30.7727 18.6565 30.6273 18.6965 30.4818C18.7365 30.3182 18.7865 30.1545 18.8465 29.9909L19.2965 28.6545C19.4365 28.2727 19.6165 27.8818 19.8365 27.4818C20.0565 27.1 20.2665 26.6727 20.4665 26.2C20.5065 26.0909 20.5565 25.9727 20.6165 25.8454C20.6965 25.6454 20.7765 25.4545 20.8565 25.2727C20.9565 25.0727 21.0465 24.8818 21.1265 24.7L21.5765 23.5545C21.6165 23.4818 21.6465 23.4091 21.6665 23.3363C21.6865 23.2636 21.7065 23.1909 21.7265 23.1182C21.8865 22.7545 22.0465 22.4091 22.2065 22.0818C22.3265 21.8636 22.4065 21.6272 22.4465 21.3727C22.4865 21.1182 22.4865 20.8636 22.4465 20.6091C22.4265 20.5 22.4065 20.3909 22.3865 20.2818C22.3865 20.1545 22.3865 20.0363 22.3865 19.9272C22.3865 19.8727 22.3665 19.8272 22.3265 19.7909C22.3065 19.7363 22.3065 19.6818 22.3265 19.6272C22.3465 19.5909 22.3665 19.5545 22.3865 19.5182C22.4265 19.4818 22.4565 19.4454 22.4765 19.4091C22.5365 19.2091 22.6265 19.0363 22.7465 18.8909C22.8865 18.7272 23.0365 18.5818 23.1965 18.4545C23.2765 18.3818 23.3865 18.3272 23.5265 18.2909C23.6065 18.2545 23.6765 18.2182 23.7365 18.1818C23.8165 18.1454 23.8865 18.1 23.9465 18.0454C24.0465 17.9727 24.1565 17.9272 24.2765 17.9091C24.4365 17.8909 24.6065 17.8363 24.7865 17.7454C24.9465 17.6545 25.1265 17.6272 25.3265 17.6636H25.5965C25.7365 17.6636 25.8865 17.7091 26.0465 17.8C26.0865 17.8182 26.1265 17.8454 26.1665 17.8818C26.2265 17.9 26.2865 17.9272 26.3465 17.9636C26.5065 18.0727 26.5865 18.2091 26.5865 18.3727C26.5865 18.5 26.5965 18.6182 26.6165 18.7272C26.6565 18.8363 26.6865 18.9545 26.7065 19.0818C26.7465 19.1909 26.7465 19.3091 26.7065 19.4363C26.6865 19.4727 26.6765 19.5182 26.6765 19.5727C26.6765 19.6091 26.6665 19.6454 26.6465 19.6818C26.6465 19.7545 26.6365 19.8272 26.6165 19.9C26.6165 19.9727 26.6065 20.0454 26.5865 20.1182C26.5265 20.2454 26.5465 20.3727 26.6465 20.5C26.8065 20.7363 26.9465 20.9818 27.0665 21.2363C27.2065 21.4909 27.3465 21.7454 27.4865 22L28.0265 22.8727C28.1865 23.1091 28.3465 23.3909 28.5065 23.7182C28.5465 23.7727 28.5765 23.8272 28.5965 23.8818C28.6365 23.9363 28.6765 23.9909 28.7165 24.0454C28.7765 24.1363 28.8265 24.2363 28.8665 24.3454C28.9265 24.4545 28.9865 24.5636 29.0465 24.6727C29.2065 24.9454 29.3365 25.2273 29.4365 25.5182C29.5565 25.7909 29.6765 26.0818 29.7965 26.3909C29.7965 26.4091 29.7965 26.4273 29.7965 26.4454C29.8165 26.4454 29.8265 26.4545 29.8265 26.4727C29.8465 26.6 29.9465 26.6636 30.1265 26.6636C30.1865 26.6454 30.2465 26.6363 30.3065 26.6363C30.3865 26.6363 30.4565 26.6363 30.5165 26.6363C30.7365 26.6363 30.9265 26.6727 31.0865 26.7454C31.1865 26.7636 31.2865 26.8182 31.3865 26.9091C31.5465 27.0545 31.6565 27.1727 31.7165 27.2636C31.7765 27.3545 31.8165 27.4909 31.8365 27.6727C31.9165 28.0182 31.8365 28.3182 31.5965 28.5727L31.4165 28.7091C31.3765 28.7454 31.3265 28.7818 31.2665 28.8182C31.2065 28.8363 31.1565 28.8636 31.1165 28.9C31.0165 28.9727 30.9565 29.0273 30.9365 29.0636C30.9365 29.1 30.9665 29.1818 31.0265 29.3091L31.4765 30.2909C31.6565 30.6545 31.8365 31.0182 32.0165 31.3818C32.2165 31.7454 32.4165 32.1091 32.6165 32.4727C32.6965 32.6 32.7565 32.7273 32.7965 32.8545C32.8565 32.9818 32.8965 33.1182 32.9165 33.2636C32.9365 33.3727 32.9365 33.4818 32.9165 33.5909C32.9165 33.7 32.9065 33.8091 32.8865 33.9182C32.8865 33.9364 32.8665 34 32.8265 34.1091C32.7665 34.1818 32.7065 34.2545 32.6465 34.3273C32.6065 34.4 32.5565 34.4727 32.4965 34.5454C32.3365 34.7454 32.2065 34.9727 32.1065 35.2273C32.0665 35.3909 31.9365 35.5182 31.7165 35.6091C31.5965 35.6636 31.4665 35.6636 31.3265 35.6091C31.1465 35.5545 31.0265 35.4454 30.9665 35.2818L30.9065 35.1454C30.8465 34.9636 30.7565 34.7909 30.6365 34.6273C30.5565 34.5 30.4765 34.3727 30.3965 34.2454C30.3365 34.1 30.2665 33.9636 30.1865 33.8363C30.1665 33.8 30.1565 33.7727 30.1565 33.7545C30.1565 33.7182 30.1465 33.6909 30.1265 33.6727C30.1065 33.5636 30.0665 33.4636 30.0065 33.3727C29.9665 33.2636 29.9165 33.1636 29.8565 33.0727C29.7365 32.8 29.6065 32.5364 29.4665 32.2818C29.3465 32.0091 29.2165 31.7363 29.0765 31.4636L28.6265 30.5909C28.6065 30.5363 28.5865 30.4818 28.5665 30.4273C28.5465 30.3545 28.5165 30.2818 28.4765 30.2091L28.1165 29.4727C28.1165 29.4363 28.0965 29.3818 28.0565 29.3091C27.9565 29.1636 27.8265 29.0818 27.6665 29.0636C27.5265 29.0636 27.3965 29.0545 27.2765 29.0363C27.1565 29.0182 27.0365 29.0091 26.9165 29.0091C26.5965 29.0091 26.2765 29.0363 25.9565 29.0909C25.6365 29.1454 25.3365 29.2454 25.0565 29.3909C24.6765 29.5909 24.2865 29.7182 23.8865 29.7727C23.8065 29.7727 23.7265 29.7818 23.6465 29.8C23.5665 29.8182 23.4865 29.8454 23.4065 29.8818C23.2865 29.9545 23.2165 30.0363 23.1965 30.1273C23.1565 30.2363 23.1365 30.3182 23.1365 30.3727L23.0465 30.7545C23.0265 30.8818 22.9465 31.0091 22.8065 31.1363C22.7065 31.2273 22.5665 31.2727 22.3865 31.2727C22.1265 31.2364 21.9565 31.1182 21.8765 30.9182C21.8565 30.8636 21.8365 30.8091 21.8165 30.7545C21.7965 30.7 21.7765 30.6363 21.7565 30.5636C21.6765 30.6727 21.6665 30.7636 21.7265 30.8363C21.7665 30.9091 21.7465 30.9727 21.6665 31.0273C21.6265 31.0636 21.6165 31.0909 21.6365 31.1091C21.6765 31.1818 21.6665 31.2454 21.6065 31.3C21.5465 31.3545 21.5265 31.4182 21.5465 31.4909C21.5665 31.5273 21.5665 31.5727 21.5465 31.6273C21.4465 31.7545 21.3765 31.9091 21.3365 32.0909C21.3565 32.1636 21.3065 32.2182 21.1865 32.2545C21.1465 32.2545 21.1265 32.2727 21.1265 32.3091C21.0865 32.3636 21.0465 32.4454 21.0065 32.5545C20.9865 32.6454 20.9565 32.7454 20.9165 32.8545C20.8965 32.9454 20.8665 33.0364 20.8265 33.1273L20.6465 33.8091V33.9182C20.6465 34.0818 20.6265 34.2454 20.5865 34.4091C20.5665 34.5545 20.5565 34.7091 20.5565 34.8727L20.4665 35.7727C20.4465 35.9 20.4265 36.0273 20.4065 36.1545C20.4065 36.3 20.4065 36.4454 20.4065 36.5909C20.3865 36.7 20.3665 36.8 20.3465 36.8909C20.3465 37 20.3265 37.1091 20.2865 37.2182C20.2465 37.3818 20.1765 37.5 20.0765 37.5727C19.9965 37.6818 19.8665 37.7182 19.6865 37.6818ZM23.5865 26.6363H23.6165C23.8165 26.6 24.0065 26.5727 24.1865 26.5545C24.3665 26.5363 24.5465 26.5182 24.7265 26.5C24.8465 26.4818 24.9665 26.4727 25.0865 26.4727C25.2065 26.4545 25.3265 26.4454 25.4465 26.4454H26.0765C26.1165 26.4454 26.1565 26.4454 26.1965 26.4454C26.2365 26.4273 26.2665 26.4182 26.2865 26.4182C26.3265 26.4182 26.3465 26.3818 26.3465 26.3091C26.2865 26.2363 26.2365 26.1636 26.1965 26.0909C26.1565 26.0182 26.1165 25.9454 26.0765 25.8727C25.9565 25.6182 25.7965 25.4 25.5965 25.2182C25.5765 25.1818 25.5565 25.1545 25.5365 25.1363C25.5165 25.1 25.4965 25.0636 25.4765 25.0273C25.4565 24.9909 25.4265 24.9545 25.3865 24.9182C25.3665 24.8636 25.3365 24.8182 25.2965 24.7818C25.1965 24.7091 25.0965 24.7273 24.9965 24.8363L24.9065 25.0545C24.8865 25.2 24.8565 25.3545 24.8165 25.5182C24.7765 25.6636 24.7365 25.8091 24.6965 25.9545C24.6965 25.9909 24.6765 26.0454 24.6365 26.1182C24.5965 26.2273 24.4965 26.3091 24.3365 26.3636C24.1965 26.4182 24.0465 26.4 23.8865 26.3091L23.7065 26.2C23.7065 26.2 23.6865 26.2 23.6465 26.2C23.6065 26.2727 23.5865 26.3273 23.5865 26.3636C23.5865 26.4 23.5865 26.4363 23.5865 26.4727C23.6065 26.5091 23.5965 26.5454 23.5565 26.5818C23.5165 26.6182 23.5265 26.6363 23.5865 26.6363Z" fill="black"/>
<defs>
<linearGradient id="paint0_linear_155_8" x1="25" y1="0" x2="25" y2="50" gradientUnits="userSpaceOnUse">
<stop stop-color="#E03B3B"/>
<stop offset="0.245" stop-color="#D33838"/>
<stop offset="0.63" stop-color="#7A2020"/>
<stop offset="1" stop-color="#7A2020"/>
</linearGradient>
</defs>
</svg>
