<svg width="92" height="98" viewBox="0 0 92 98" fill="none" xmlns="http://www.w3.org/2000/svg">
<g filter="url(#filter0_d_191_13)">
<path d="M4 5C4 2.23858 6.23858 0 9 0C11.7614 0 14 2.23858 14 5V85C14 87.7614 11.7614 90 9 90C6.23858 90 4 87.7614 4 85V5Z" fill="#042B5C"/>
<path d="M9 90C6.23858 90 4 87.7614 4 85C4 82.2386 6.23858 80 9 80H83C85.7614 80 88 82.2386 88 85C88 87.7614 85.7614 90 83 90H9Z" fill="#042B5C"/>
<path d="M78 5C78 2.23858 80.2386 0 83 0C85.7614 0 88 2.23858 88 5V85C88 87.7614 85.7614 90 83 90C80.2386 90 78 87.7614 78 85V5Z" fill="#042B5C"/>
<path d="M9 10C6.23858 10 4 7.76143 4 5C4 2.23858 6.23858 0 9 0H83C85.7614 0 88 2.23858 88 5C88 7.76142 85.7614 10 83 10H9Z" fill="#042B5C"/>
<path d="M21 23.9063C21 21.7489 22.3091 20 23.924 20H68.076C69.6909 20 71 21.7489 71 23.9063C71 26.0637 69.6909 27.8126 68.076 27.8126H23.924C22.3091 27.8126 21 26.0637 21 23.9063Z" fill="black"/>
<path d="M21 23.9063C21 21.7489 22.3091 20 23.924 20H68.076C69.6909 20 71 21.7489 71 23.9063C71 26.0637 69.6909 27.8126 68.076 27.8126H23.924C22.3091 27.8126 21 26.0637 21 23.9063Z" fill="black"/>
<path d="M21 45.0004C21 42.843 22.3091 41.0941 23.924 41.0941H68.076C69.6909 41.0941 71 42.843 71 45.0004C71 47.1578 69.6909 48.9067 68.076 48.9067H23.924C22.3091 48.9067 21 47.1578 21 45.0004Z" fill="black"/>
<path d="M21 45.0004C21 42.843 22.3091 41.0941 23.924 41.0941H68.076C69.6909 41.0941 71 42.843 71 45.0004C71 47.1578 69.6909 48.9067 68.076 48.9067H23.924C22.3091 48.9067 21 47.1578 21 45.0004Z" fill="black"/>
<path d="M21 66.0937C21 63.9363 22.3091 62.1874 23.924 62.1874H68.076C69.6909 62.1874 71 63.9363 71 66.0937C71 68.2511 69.6909 70 68.076 70H23.924C22.3091 70 21 68.2511 21 66.0937Z" fill="black"/>
<path d="M21 66.0937C21 63.9363 22.3091 62.1874 23.924 62.1874H68.076C69.6909 62.1874 71 63.9363 71 66.0937C71 68.2511 69.6909 70 68.076 70H23.924C22.3091 70 21 68.2511 21 66.0937Z" fill="black"/>
</g>
<defs>
<filter id="filter0_d_191_13" x="0" y="0" width="92" height="98" filterUnits="userSpaceOnUse" color-interpolation-filters="sRGB">
<feFlood flood-opacity="0" result="BackgroundImageFix"/>
<feColorMatrix in="SourceAlpha" type="matrix" values="0 0 0 0 0 0 0 0 0 0 0 0 0 0 0 0 0 0 127 0" result="hardAlpha"/>
<feOffset dy="4"/>
<feGaussianBlur stdDeviation="2"/>
<feComposite in2="hardAlpha" operator="out"/>
<feColorMatrix type="matrix" values="0 0 0 0 0 0 0 0 0 0 0 0 0 0 0 0 0 0 0.25 0"/>
<feBlend mode="normal" in2="BackgroundImageFix" result="effect1_dropShadow_191_13"/>
<feBlend mode="normal" in="SourceGraphic" in2="effect1_dropShadow_191_13" result="shape"/>
</filter>
</defs>
</svg>
